<?xml version="1.0" encoding="UTF-8" standalone="no"?><!-- Generator: Gravit.io --><svg xmlns="http://www.w3.org/2000/svg" xmlns:xlink="http://www.w3.org/1999/xlink" style="isolation:isolate" viewBox="0 0 120 41" width="120pt" height="41pt"><defs><clipPath id="_clipPath_KtXtT20JN2tJWVaNm7RH7IPOEA0WLeAf"><rect width="120" height="41"/></clipPath></defs><g clip-path="url(#_clipPath_KtXtT20JN2tJWVaNm7RH7IPOEA0WLeAf)"><linearGradient id="_lgradient_7" x1="0" y1="0.5" x2="0.9990065471279389" y2="0.45543635118716946" gradientTransform="matrix(39.537,0,0,12.733,27.28,28.267)" gradientUnits="userSpaceOnUse"/><path d=" M 66.327 35.414 C 64.037 35.253 61.788 34.923 59.59 34.384 C 59.513 34.364 59.436 34.35 59.359 34.329 C 60.814 36.426 61.773 41.014 61.759 41 C 59.285 37.091 56.708 33.881 53.85 32.538 C 53.344 33.992 53.291 36.207 53.495 38.859 C 52.278 35.744 52.16 33.682 52.169 32.899 C 51.642 35.187 50.052 37.206 48.283 39.183 C 49.979 35.982 50.917 33.245 50.955 31.064 C 43.679 32.005 35.708 32.712 27.28 33.261 C 27.677 32.33 28.273 31.9 28.994 31.794 C 30.518 31.704 40.527 31.069 53.859 29.255 L 55.003 29.097 L 55.323 29.05 L 59.611 28.424 L 60.611 28.27 C 60.618 28.269 60.625 28.268 60.63 28.267 L 66.817 35.45 L 66.326 35.414 L 66.327 35.414 Z " fill="url(#_lgradient_7)"/><linearGradient id="_lgradient_8" x1="0" y1="0.5" x2="0.48266259176075277" y2="-0.37580638414822765" gradientTransform="matrix(13.772,0,0,19.741,116.228,-1.928)" gradientUnits="userSpaceOnUse"/><path d=" M 129.084 10.823 C 127.562 12.798 125.695 14.156 123.879 15.532 C 122.802 16.321 121.664 17.094 120.562 17.813 L 116.246 12.409 C 119.256 10.817 122.26 8.997 125.074 6.817 C 122.27 8.898 119.222 10.442 116.228 11.899 C 117.257 7.296 118.589 2.593 120.065 -1.928 C 122.75 -1.649 125.609 -0.71 127.707 1.754 C 128.87 3.319 129.878 5.349 129.996 7.651 C 130.043 8.835 129.691 9.998 129.085 10.823 L 129.084 10.823 Z " fill="url(#_lgradient_8)"/><linearGradient id="_lgradient_9" x1="0" y1="0.5" x2="0.9962602278030681" y2="0.41359653654060585" gradientTransform="matrix(24,0,0,15.028,96.61,12.384)" gradientUnits="userSpaceOnUse"/><path d=" M 101.461 18.687 C 103.162 18.097 104.833 17.481 106.466 16.84 C 108.162 16.175 109.817 15.48 111.422 14.754 L 111.708 14.628 C 113.288 13.91 114.818 13.161 116.292 12.384 L 120.61 17.784 L 119.718 18.359 C 118.578 19.082 117.359 19.823 116.073 20.57 C 114.624 21.411 113.085 22.26 111.48 23.108 C 109.995 23.888 108.448 24.666 106.856 25.429 L 102.53 27.412 C 100.406 25.227 98.583 22.657 96.61 20.28 L 101.462 18.687 L 101.461 18.687 Z " fill="url(#_lgradient_9)"/><linearGradient id="_lgradient_10" x1="0" y1="0.5" x2="0.9987302751227461" y2="0.4496230454151525" gradientTransform="matrix(41.899,0,0,15.259,60.63,20.28)" gradientUnits="userSpaceOnUse"/><path d=" M 65.844 27.418 L 71.015 26.49 L 76.061 25.493 L 81.162 24.386 L 86.364 23.143 L 91.479 21.79 L 93.309 21.271 L 96.441 20.334 L 96.609 20.28 L 102.529 27.413 L 102.211 27.55 L 97.603 29.451 C 96.025 30.067 94.425 30.652 92.809 31.207 L 88.7 32.534 L 87.868 32.779 C 86.139 33.28 84.481 33.698 82.896 34.047 C 81.1 34.441 79.398 34.746 77.795 34.973 C 76.741 35.124 75.728 35.241 74.758 35.334 L 72.291 35.485 C 70.364 35.57 68.459 35.556 66.58 35.435 L 60.63 28.267 L 64.693 27.613 L 65.844 27.418 L 65.844 27.418 Z " fill="url(#_lgradient_10)"/><linearGradient id="_lgradient_11" x1="0" y1="0.5" x2="0.996577191401339" y2="0.4173325845413152" gradientTransform="matrix(42.109,0,0,25.219,60.065,1.712)" gradientUnits="userSpaceOnUse"/><path d=" M 96.169 19.34 L 95.484 19.539 L 93.377 20.138 L 91 20.781 L 89.766 21.104 L 85.912 22.063 L 80.849 23.219 L 75.683 24.287 L 70.469 25.265 L 65.557 26.096 L 60.065 26.931 L 61.067 23.185 L 61.054 23.426 C 62.302 18.964 65.895 13.708 69.677 10.82 C 71.419 9.488 73.384 8.414 75.611 7.564 C 77.268 6.931 79.071 6.422 81.036 6.026 C 82.754 5.678 84.593 5.411 86.569 5.224 C 85.975 6.141 85.461 7.251 85.013 8.516 L 84.782 9.196 C 84.708 9.428 84.635 9.662 84.566 9.903 C 84.566 9.9 84.569 9.898 84.57 9.895 C 86.54 6.016 89.332 4.11 92.506 3.123 C 91.746 4.06 90.685 5.642 89.936 7.72 C 89.834 8.004 89.741 8.296 89.652 8.594 L 89.586 8.816 C 89.587 8.814 89.589 8.814 89.59 8.811 C 89.59 8.811 89.59 8.808 89.592 8.809 C 90.313 7.475 91.044 6.393 91.835 5.509 C 92.005 5.32 92.177 5.138 92.354 4.968 C 92.622 4.707 92.898 4.468 93.182 4.245 C 93.365 4.102 93.55 3.966 93.739 3.84 C 94.184 3.541 94.652 3.279 95.15 3.053 C 95.304 2.983 95.459 2.917 95.614 2.854 L 96.274 2.647 C 97.253 2.35 98.115 2.142 98.866 1.998 C 99.242 1.926 99.587 1.869 99.906 1.829 L 100.274 1.783 C 100.629 1.746 100.942 1.724 101.216 1.716 C 101.625 1.704 101.945 1.722 102.173 1.75 C 102.064 1.867 101.951 2.005 101.836 2.164 C 101.041 3.266 100.127 5.337 99.564 7.049 L 99.399 7.64 L 96.442 19.327 C 96.408 19.337 96.206 19.327 96.168 19.34 L 96.169 19.34 Z " fill="url(#_lgradient_11)"/><linearGradient id="_lgradient_12" x1="0" y1="0.5" x2="0.9924334530249542" y2="0.37721628236217136" gradientTransform="matrix(23.852,0,0,21.306,96.275,-2)" gradientUnits="userSpaceOnUse"/><path d=" M 116.278 11.873 C 114.891 12.534 113.326 13.237 111.565 13.966 L 111.286 14.081 C 109.625 14.766 107.956 15.414 106.28 16.024 L 101.241 17.765 L 96.275 19.306 L 99.378 7.624 C 101.186 4.507 102.581 3.214 104.388 2.217 C 104.898 1.95 105.412 1.697 105.929 1.456 C 107.553 0.702 109.314 0.021 111.044 -0.535 C 112.714 -1.071 114.349 -1.486 115.8 -1.737 C 116.723 -1.895 117.572 -1.986 118.303 -1.998 C 118.948 -2.008 119.554 -1.98 120.127 -1.922 C 118.693 2.588 117.091 8.165 116.276 11.874 L 116.278 11.873 Z " fill="url(#_lgradient_12)"/><linearGradient id="_lgradient_13" x1="0" y1="0.5" x2="0.9911874135046209" y2="0.3675329802931321" gradientTransform="matrix(18.67,0,0,18.014,48.31,10.125)" gradientUnits="userSpaceOnUse"/><path d=" M 59.298 27.044 L 55.07 27.617 L 54.47 27.695 L 50.712 28.139 C 50.505 26.576 49.495 25.024 48.31 23.476 C 49.716 24.086 50.909 25.376 51.665 27.293 C 52.695 20.295 55.037 14.774 59.243 12.964 C 59.626 12.799 60.016 12.667 60.411 12.57 C 58.877 13.523 58.018 15.07 57.558 18.386 C 57.555 18.392 57.551 18.4 57.548 18.405 C 57.551 18.4 57.555 18.392 57.558 18.386 C 59.985 14.116 61.913 12.221 64.771 10.949 C 65.449 10.648 66.178 10.38 66.979 10.125 C 63.1 13.247 61.327 17.815 61.069 23.187 L 61.054 23.425 L 60.067 26.933 L 59.299 27.045 L 59.298 27.044 Z " fill="url(#_lgradient_13)"/><path d=" M 112.239 34.06 L 112.983 34.06 L 112.983 34.28 C 112.89 34.28 112.798 34.28 112.706 34.28 L 112.706 35.359 L 112.516 35.359 L 112.516 34.28 C 112.424 34.28 112.331 34.28 112.239 34.28 L 112.239 34.06 L 112.239 34.06 Z  M 113.102 35.359 L 113.102 34.06 L 113.385 34.06 L 113.555 34.946 L 113.723 34.059 L 114.006 34.059 L 114.006 35.358 C 113.948 35.358 113.89 35.358 113.831 35.358 L 113.831 34.336 L 113.645 35.358 C 113.585 35.358 113.524 35.358 113.463 35.358 L 113.278 34.336 L 113.278 35.358 C 113.22 35.357 113.161 35.358 113.102 35.357 L 113.102 35.359 Z " fill="rgb(102,194,227)"/><path d=" M 95.602 38.496 L 102.329 38.496 L 103.163 33.238 L 108.985 33.255 C 109.922 33.255 110.753 32.851 111.49 32.16 C 112.38 31.326 113.044 30.048 113.294 28.471 L 114.566 20.469 C 114.808 18.947 115.123 17.227 114.336 15.852 C 113.612 14.587 112.651 14.489 111.596 14.489 C 104 14.5 96.404 14.488 88.808 14.488 C 88.041 14.488 87.399 14.832 86.729 15.312 C 86.1 14.695 85.533 14.488 84.762 14.488 L 74.336 14.488 L 75.19 9.158 L 68.451 9.158 L 67.618 14.358 L 61.692 14.358 C 60.874 14.358 60.088 14.715 59.401 15.326 C 58.736 14.752 58.223 14.503 57.435 14.503 L 37.874 14.503 L 38.77 9.1 L 32.042 9.086 L 28.164 33.148 L 34.885 33.15 L 36.907 20.836 L 39.181 20.836 C 39.452 20.836 39.399 21.05 39.353 21.332 L 37.441 33.15 L 82.001 33.151 C 82.757 33.151 83.348 32.934 84.029 32.452 C 84.7 33.075 85.292 33.28 86.112 33.271 L 96.432 33.15 L 95.602 38.496 L 95.602 38.496 Z  M 66.498 20.853 L 64.515 20.853 C 64.167 20.853 64.073 21.073 64.005 21.506 L 63.26 26.14 C 63.189 26.584 63.351 26.657 63.631 26.657 L 65.561 26.657 L 66.499 20.853 L 66.498 20.853 Z  M 77.876 20.965 L 79.995 20.965 C 80.402 20.965 80.38 21.261 80.307 21.719 L 79.579 26.259 C 79.495 26.788 79.257 26.779 78.93 26.779 L 76.774 26.779 C 76.457 26.779 76.454 26.519 76.51 26.164 L 77.235 21.625 C 77.325 21.064 77.484 20.965 77.876 20.965 L 77.876 20.965 Z  M 91.822 20.965 L 93.941 20.965 C 94.349 20.965 94.326 21.261 94.253 21.719 L 93.525 26.259 C 93.441 26.788 93.203 26.779 92.876 26.779 L 90.72 26.779 C 90.403 26.779 90.4 26.519 90.457 26.164 L 91.182 21.625 C 91.271 21.064 91.43 20.965 91.822 20.965 L 91.822 20.965 Z  M 104.259 26.822 L 106.243 26.822 C 106.591 26.822 106.685 26.601 106.753 26.169 L 107.498 21.534 C 107.569 21.091 107.407 21.018 107.127 21.018 L 105.196 21.018 L 104.259 26.822" fill-rule="evenodd" fill="rgb(0,0,0)"/><path d=" M 76.325 15.842 L 84.776 15.842 C 86.094 15.842 86.934 17.339 86.642 19.168 L 85.136 28.594 C 84.845 30.423 83.526 31.92 82.208 31.92 L 73.758 31.92 C 72.439 31.92 71.599 30.423 71.891 28.594 L 73.397 19.168 C 73.688 17.339 75.006 15.842 76.325 15.842 L 76.325 15.842 Z  M 77.857 19.627 L 82.035 19.627 C 82.733 19.627 83.177 20.419 83.023 21.386 L 82.226 26.376 C 82.072 27.343 81.374 28.135 80.677 28.135 L 76.499 28.135 C 75.801 28.135 75.357 27.343 75.511 26.376 L 76.307 21.386 C 76.462 20.418 77.16 19.627 77.857 19.627" fill-rule="evenodd" fill="rgb(255,240,28)"/><path d=" M 70.843 10.334 L 69.979 15.722 L 63.09 15.714 C 61.772 15.713 60.456 17.209 60.164 19.038 L 58.654 28.469 C 58.363 30.297 59.202 31.793 60.521 31.793 L 70.665 31.793 L 74.092 10.334 L 70.843 10.334 L 70.843 10.334 Z  M 64.623 19.502 L 69.377 19.502 L 68.012 28.005 L 63.263 28.005 C 62.565 28.005 62.122 27.217 62.277 26.25 L 63.074 21.256 C 63.228 20.289 63.926 19.502 64.623 19.502 L 64.623 19.502 Z " fill-rule="evenodd" fill="rgb(255,240,28)"/><g><path d=" M 34.416 10.334 L 33.101 18.559 L 33.117 18.559 L 33.062 18.883 L 33.006 19.169 L 31.913 25.995 L 31.925 25.995 L 30.994 31.793 L 34.243 31.793 L 35.174 25.995 L 35.18 25.995 L 35.915 21.388 C 35.916 21.381 35.914 21.372 35.915 21.365 L 36.2 19.625 L 40.942 19.625 C 41.64 19.625 42.089 20.42 41.935 21.388 L 40.274 31.793 L 43.529 31.793 L 44.449 26.057 L 44.454 26.057 L 45.552 19.169 C 45.844 17.34 45.004 15.838 43.685 15.838 L 36.79 15.838 L 37.671 10.334 L 34.416 10.334 L 34.416 10.334 Z  M 57.433 31.792 L 46.594 31.792 C 45.275 31.792 44.435 30.295 44.727 28.466 L 45.165 25.731 L 45.167 25.731 L 45.251 25.205 C 45.543 23.377 46.861 21.879 48.179 21.879 L 55.764 21.884 L 55.876 21.186 C 55.995 20.274 55.581 19.535 54.93 19.498 L 46.149 19.498 L 46.753 15.716 L 57.65 15.72 C 58.941 15.755 59.758 17.237 59.469 19.044 L 59.264 20.328 L 59.266 20.328 L 59.017 21.886 L 59.019 21.886 L 57.434 31.791 L 57.433 31.792 Z  M 49.007 28.007 L 54.782 28.007 L 55.158 25.664 L 49.482 25.664 C 49.454 25.66 49.426 25.658 49.397 25.658 C 48.932 25.658 48.468 26.185 48.366 26.83 C 48.265 27.467 48.553 27.99 49.008 28.002 C 49.008 28.004 49.008 28.005 49.007 28.007" fill-rule="evenodd" fill="rgb(255,240,28)"/><path d=" M 90.254 15.842 L 98.704 15.842 C 100.023 15.842 100.863 17.339 100.571 19.168 L 99.065 28.594 C 98.773 30.423 97.455 31.92 96.136 31.92 L 87.686 31.92 C 86.368 31.92 85.528 30.423 85.82 28.594 L 87.325 19.168 C 87.617 17.339 88.935 15.842 90.254 15.842 L 90.254 15.842 Z  M 91.786 19.627 L 95.964 19.627 C 96.662 19.627 97.106 20.419 96.951 21.386 L 96.155 26.376 C 96.001 27.343 95.303 28.135 94.605 28.135 L 90.428 28.135 C 89.73 28.135 89.285 27.343 89.44 26.376 L 90.236 21.386 C 90.391 20.418 91.088 19.627 91.786 19.627" fill-rule="evenodd" fill="rgb(255,240,28)"/><path d=" M 101.613 37.295 L 102.476 31.907 L 109.365 31.915 C 110.683 31.916 111.999 30.42 112.291 28.591 L 113.801 19.16 C 114.093 17.333 113.253 15.836 111.934 15.836 L 101.791 15.836 L 98.363 37.295 L 101.613 37.295 L 101.613 37.295 Z  M 107.832 28.127 L 103.078 28.127 L 104.444 19.624 L 109.192 19.624 C 109.89 19.624 110.333 20.412 110.179 21.379 L 109.382 26.373 C 109.227 27.34 108.529 28.127 107.832 28.127 L 107.832 28.127 Z " fill-rule="evenodd" fill="rgb(255,240,28)"/></g><path d=" M 3.764 22.002 L 3.603 22.609 L 3.295 22.452 L 3.455 21.845 L 3.764 22.002 Z  M 3.603 22.609 L 3.363 23.512 L 3.055 23.355 L 3.294 22.452 L 3.603 22.609 Z  M 3.363 23.512 L 3.325 23.595 L 3.209 23.434 L 3.363 23.512 Z  M 3.325 23.595 L 2.8 24.316 L 2.569 23.994 L 3.094 23.273 L 3.325 23.595 Z  M 2.8 24.316 L 2.334 24.956 L 2.103 24.633 L 2.569 23.994 L 2.8 24.316 Z  M 2.334 24.956 L 2.218 25.114 L 1.99 24.784 L 2.103 24.633 L 2.334 24.956 Z  M 2.218 25.114 C 2.008 25.394 1.965 25.45 2.027 25.951 L 1.703 26.026 C 1.614 25.287 1.677 25.204 1.991 24.784 L 2.218 25.114 Z  M 2.027 25.951 C 2.076 26.356 2.173 26.767 2.325 27.168 L 2.033 27.38 C 1.865 26.937 1.758 26.479 1.703 26.026 L 2.027 25.951 Z  M 2.325 27.168 C 2.466 27.541 2.653 27.901 2.893 28.234 L 2.661 28.554 C 2.395 28.184 2.188 27.787 2.033 27.379 L 2.325 27.168 Z  M 2.893 28.234 C 3.2 28.66 3.7 29.188 4.221 29.463 L 4.105 29.888 C 3.536 29.588 2.993 29.015 2.661 28.554 L 2.893 28.234 Z  M 4.221 29.463 C 4.583 29.654 4.953 29.719 5.261 29.53 L 5.393 29.947 C 4.995 30.191 4.541 30.118 4.105 29.888 L 4.221 29.463 Z  M 5.261 29.53 L 5.578 29.335 L 5.486 29.799 L 5.327 29.738 L 5.261 29.53 Z  M 5.486 29.799 C 5.445 30.006 5.396 30.218 5.341 30.43 L 5.032 30.275 C 5.083 30.079 5.129 29.879 5.169 29.678 L 5.486 29.799 Z  M 5.341 30.43 C 5.288 30.633 5.229 30.833 5.165 31.03 L 4.866 30.841 C 4.927 30.655 4.982 30.465 5.032 30.275 L 5.341 30.43 Z  M 5.165 31.029 C 4.887 31.873 5.178 32.318 5.629 32.603 L 5.493 33.018 C 4.876 32.628 4.48 32.015 4.866 30.84 L 5.165 31.029 Z  M 5.629 32.603 C 5.917 32.786 6.266 32.911 6.59 33.029 L 6.508 33.468 C 6.167 33.346 5.801 33.213 5.493 33.018 L 5.629 32.603 Z  M 6.59 33.029 L 6.818 33.112 L 6.735 33.552 L 6.508 33.468 L 6.59 33.029 Z  M 6.818 33.112 C 7.209 33.258 7.885 33.527 8.492 33.58 L 8.471 34.036 C 7.835 33.98 7.138 33.703 6.735 33.552 L 6.818 33.112 Z  M 8.492 33.58 C 9.041 33.629 9.53 33.5 9.643 32.918 L 9.96 33.033 C 9.792 33.898 9.166 34.097 8.471 34.036 L 8.492 33.58 Z  M 9.643 32.918 C 9.703 32.609 9.738 32.37 9.752 32.134 L 10.081 32.171 C 10.065 32.428 10.027 32.691 9.96 33.033 L 9.643 32.918 Z  M 9.752 32.134 C 9.767 31.896 9.761 31.666 9.74 31.373 L 10.066 31.33 C 10.09 31.66 10.097 31.915 10.081 32.171 L 9.752 32.134 Z  M 9.74 31.373 L 9.753 31.259 L 9.903 31.352 L 9.74 31.373 Z  M 9.753 31.259 C 9.974 30.575 10.065 30.39 10.226 30.063 L 10.497 30.319 C 10.348 30.621 10.264 30.792 10.054 31.444 L 9.753 31.259 Z  M 10.226 30.063 L 10.298 29.915 L 10.57 30.17 L 10.497 30.318 L 10.226 30.063 Z  M 10.298 29.915 C 10.423 29.657 10.481 29.484 10.499 29.306 L 10.824 29.369 C 10.798 29.624 10.725 29.85 10.57 30.17 L 10.298 29.915 Z  M 10.499 29.306 C 10.518 29.119 10.499 28.896 10.47 28.554 L 10.796 28.502 C 10.828 28.877 10.849 29.122 10.824 29.369 L 10.499 29.306 Z  M 10.47 28.554 L 10.451 28.338 L 10.775 28.281 L 10.796 28.502 L 10.47 28.554 Z  M 10.451 28.338 L 10.427 28.114 L 10.752 28.048 L 10.775 28.281 L 10.451 28.338 Z  M 10.427 28.114 L 10.395 27.81 L 10.614 27.856 L 10.59 28.081 L 10.427 28.114 Z  M 10.614 27.856 C 11.069 27.951 11.529 28.001 11.989 28.005 L 11.987 28.46 C 11.518 28.456 11.046 28.406 10.565 28.306 L 10.614 27.856 Z  M 11.989 28.005 C 12.444 28.009 12.896 27.969 13.353 27.89 L 13.392 28.343 C 12.921 28.423 12.455 28.465 11.987 28.46 L 11.989 28.005 Z  M 13.353 27.89 L 13.454 28.314 L 13.372 28.116 L 13.353 27.89 Z  M 13.454 28.314 C 13.189 28.528 12.924 28.717 12.586 28.958 L 12.436 28.552 C 12.769 28.314 13.031 28.128 13.29 27.919 L 13.454 28.314 Z  M 12.586 28.958 L 12.511 29.012 L 12.361 28.606 L 12.436 28.552 L 12.586 28.958 Z  M 12.511 29.012 C 12.163 29.26 12.161 29.779 12.283 30.324 L 11.97 30.459 C 11.802 29.713 11.824 28.989 12.361 28.606 L 12.511 29.012 Z  M 12.283 30.324 C 12.422 30.941 12.718 31.591 12.903 31.988 L 12.628 32.235 C 12.433 31.818 12.121 31.131 11.97 30.459 L 12.283 30.324 Z  M 12.903 31.988 C 13.291 32.817 13.657 33.516 14.077 33.873 L 13.907 34.262 C 13.431 33.858 13.039 33.115 12.628 32.236 L 12.903 31.988 Z  M 14.077 33.873 C 14.475 34.211 14.939 34.242 15.554 33.78 L 15.709 34.182 C 14.974 34.734 14.405 34.684 13.907 34.261 L 14.077 33.873 Z  M 15.554 33.78 C 15.845 33.562 15.942 33.325 16.073 33.005 L 16.36 33.23 C 16.201 33.616 16.083 33.902 15.709 34.182 L 15.554 33.78 Z  M 16.073 33.005 C 16.126 32.878 16.183 32.739 16.267 32.565 L 16.539 32.818 C 16.472 32.958 16.413 33.1 16.36 33.23 L 16.073 33.005 Z  M 16.267 32.565 L 16.324 32.491 L 16.403 32.692 L 16.267 32.565 Z  M 16.324 32.491 C 16.42 32.418 16.83 31.949 17.229 31.492 L 17.438 31.842 C 17.026 32.314 16.602 32.8 16.482 32.892 L 16.324 32.491 Z  M 17.229 31.492 L 17.741 30.907 L 17.948 31.263 L 17.438 31.843 L 17.229 31.492 Z  M 17.741 30.907 L 17.867 30.766 L 17.971 30.939 L 17.845 31.085 L 17.741 30.907 Z  M 17.971 30.938 C 18.037 31.047 18.14 31.115 18.281 31.162 L 18.205 31.605 C 17.995 31.535 17.834 31.423 17.717 31.23 L 17.971 30.938 Z  M 18.281 31.162 C 18.443 31.216 18.655 31.241 18.913 31.267 L 18.889 31.723 C 18.62 31.696 18.394 31.668 18.205 31.605 L 18.281 31.162 Z  M 18.913 31.267 C 19.114 31.287 19.759 31.287 20.176 31.287 L 20.176 31.743 C 19.75 31.743 19.091 31.743 18.889 31.723 L 18.913 31.267 Z  M 20.176 31.287 L 20.483 31.287 L 20.482 31.743 L 20.176 31.743 L 20.176 31.287 L 20.176 31.287 Z  M 20.483 31.287 C 20.871 31.291 21.179 31.267 21.382 31.107 L 21.544 31.504 C 21.275 31.715 20.921 31.747 20.482 31.743 L 20.483 31.287 L 20.483 31.287 Z  M 21.382 31.107 C 21.567 30.961 21.679 30.674 21.707 30.137 L 22.035 30.169 C 21.998 30.882 21.829 31.28 21.543 31.504 L 21.382 31.107 Z  M 21.707 30.137 C 21.721 29.86 21.724 29.696 21.702 29.555 L 22.023 29.457 C 22.054 29.656 22.052 29.852 22.035 30.169 L 21.707 30.137 Z  M 21.702 29.555 C 21.679 29.413 21.627 29.267 21.529 29.026 L 21.817 28.804 C 21.929 29.081 21.991 29.257 22.023 29.457 L 21.702 29.555 Z  M 21.529 29.026 L 21.509 28.92 L 21.673 28.915 L 21.529 29.026 Z  M 21.509 28.92 L 21.488 27.941 L 21.817 27.93 L 21.836 28.911 L 21.509 28.92 Z  M 21.488 27.941 L 21.47 26.959 L 21.798 26.949 L 21.817 27.93 L 21.488 27.941 Z  M 21.47 26.959 C 21.463 26.608 21.436 26.326 21.385 26.052 L 21.704 25.942 C 21.76 26.25 21.791 26.563 21.798 26.949 L 21.47 26.959 Z  M 21.385 26.052 C 21.335 25.776 21.26 25.5 21.158 25.166 L 21.461 24.989 C 21.568 25.342 21.648 25.637 21.704 25.943 L 21.385 26.052 Z  M 21.158 25.166 C 21.086 24.929 21.025 24.698 20.964 24.472 L 21.272 24.316 C 21.33 24.531 21.388 24.751 21.461 24.989 L 21.158 25.166 Z  M 21.272 24.315 L 21.118 24.393 L 21.272 24.315 Z  M 20.964 24.473 C 20.87 24.122 20.779 23.781 20.645 23.415 L 20.939 23.21 C 21.08 23.594 21.175 23.949 21.272 24.315 L 20.964 24.473 Z  M 20.645 23.415 L 20.631 23.273 L 20.792 23.313 L 20.645 23.415 Z  M 20.631 23.273 C 20.646 23.156 20.659 23.039 20.671 22.921 L 20.995 22.978 C 20.984 23.103 20.97 23.228 20.954 23.352 L 20.631 23.273 Z  M 20.671 22.921 C 20.682 22.799 20.691 22.677 20.699 22.555 L 21.028 22.592 C 21.019 22.721 21.008 22.85 20.996 22.978 L 20.671 22.921 Z  M 20.699 22.555 L 20.729 22.078 L 20.976 22.409 L 20.863 22.573 L 20.699 22.555 Z  M 20.977 22.409 L 21.459 23.054 L 21.232 23.383 L 20.75 22.738 L 20.977 22.409 Z  M 21.459 23.054 L 21.82 23.536 L 21.593 23.866 L 21.232 23.383 L 21.459 23.054 Z  M 21.82 23.536 C 22.081 23.884 22.319 24.201 22.583 24.417 L 22.416 24.81 C 22.12 24.568 21.868 24.234 21.593 23.866 L 21.82 23.536 Z  M 22.583 24.417 C 22.837 24.625 23.123 24.745 23.495 24.72 L 23.511 25.176 C 23.066 25.205 22.722 25.06 22.416 24.81 L 22.583 24.417 Z  M 23.495 24.72 C 23.897 24.694 24.331 24.456 24.691 24.086 L 24.887 24.453 C 24.476 24.873 23.977 25.145 23.511 25.176 L 23.495 24.72 Z  M 24.691 24.086 C 25.036 23.734 25.31 23.267 25.421 22.758 L 25.735 22.89 C 25.602 23.497 25.283 24.046 24.886 24.453 L 24.691 24.086 Z  M 25.421 22.758 L 25.537 22.232 L 25.851 22.363 L 25.736 22.89 L 25.421 22.758 Z  M 25.537 22.232 L 25.671 21.619 L 25.985 21.751 L 25.851 22.363 L 25.537 22.232 Z  M 25.671 21.619 L 25.714 21.423 L 25.858 21.461 L 25.828 21.685 L 25.671 21.619 Z  M 25.858 21.461 C 26.524 21.636 27.248 21.697 27.945 21.595 L 27.977 22.048 C 27.249 22.153 26.492 22.09 25.798 21.908 L 25.858 21.461 Z  M 27.945 21.595 C 28.556 21.506 29.146 21.291 29.654 20.916 L 29.808 21.318 C 29.263 21.721 28.631 21.952 27.977 22.048 L 27.945 21.595 Z  M 29.654 20.916 C 30.396 20.366 30.954 19.553 31.356 18.588 L 31.641 18.814 C 31.209 19.851 30.609 20.725 29.808 21.319 L 29.654 20.916 Z  M 31.356 18.588 L 31.356 18.587 L 31.499 18.701 L 31.356 18.588 L 31.356 18.588 Z  M 31.356 18.587 C 31.815 17.484 32.072 16.184 32.17 14.843 L 32.496 14.885 C 32.394 16.291 32.123 17.656 31.641 18.815 L 31.356 18.587 Z  M 32.17 14.843 C 32.25 13.75 32.206 12.26 32.041 10.82 L 32.364 10.748 C 32.533 12.226 32.578 13.758 32.496 14.886 L 32.17 14.843 Z  M 32.041 10.82 C 31.895 9.549 31.656 8.319 31.326 7.444 L 31.619 7.234 C 31.965 8.153 32.215 9.432 32.366 10.749 L 32.041 10.82 Z  M 31.326 7.444 C 31.3 7.375 31.257 7.3 31.203 7.225 L 31.433 6.898 C 31.512 7.007 31.576 7.121 31.618 7.233 L 31.326 7.444 Z  M 31.203 7.225 C 31.062 7.032 30.853 6.849 30.636 6.746 L 30.743 6.315 C 31.006 6.441 31.261 6.663 31.433 6.899 L 31.203 7.225 Z  M 30.636 6.746 C 30.435 6.65 30.233 6.624 30.088 6.729 L 29.937 6.324 C 30.17 6.155 30.464 6.182 30.743 6.315 L 30.636 6.746 Z  M 30.088 6.729 C 30.057 6.751 30.029 6.78 30.004 6.814 L 29.769 6.496 C 29.819 6.426 29.875 6.368 29.936 6.324 L 30.088 6.729 Z  M 30.004 6.814 C 29.87 7.003 29.752 7.242 29.634 7.482 L 29.363 7.225 C 29.491 6.966 29.618 6.708 29.769 6.496 L 30.004 6.814 Z  M 29.634 7.482 C 29.478 7.797 29.322 8.113 29.12 8.352 L 28.907 8.005 C 29.078 7.803 29.221 7.513 29.363 7.225 L 29.634 7.482 Z  M 29.12 8.352 C 28.873 8.646 28.586 8.805 28.319 8.954 L 28.197 8.53 C 28.44 8.395 28.7 8.25 28.907 8.005 L 29.12 8.352 Z  M 28.319 8.954 L 28.198 9.021 L 28.074 8.599 L 28.197 8.53 L 28.319 8.954 Z  M 28.198 9.021 L 28.041 9.111 L 27.982 8.889 L 28.136 8.81 L 28.198 9.021 Z  M 27.982 8.889 C 27.876 8.491 27.745 8.135 27.595 7.801 L 27.874 7.559 C 28.035 7.917 28.175 8.299 28.291 8.732 L 27.982 8.889 Z  M 27.595 7.801 C 27.443 7.463 27.27 7.149 27.08 6.835 L 27.332 6.543 C 27.532 6.874 27.714 7.205 27.874 7.559 L 27.595 7.801 Z  M 27.08 6.835 C 26.949 6.617 26.8 6.42 26.637 6.249 L 26.836 5.888 C 27.019 6.079 27.185 6.299 27.332 6.543 L 27.08 6.835 Z  M 26.637 6.249 C 26.484 6.087 26.31 5.935 26.106 5.759 L 26.281 5.372 C 26.487 5.551 26.663 5.705 26.836 5.888 L 26.637 6.249 Z  M 26.106 5.758 C 25.533 5.26 25.053 4.677 24.563 4.08 L 24.779 3.736 C 25.258 4.32 25.729 4.892 26.281 5.372 L 26.106 5.758 Z  M 24.563 4.08 L 23.916 3.31 L 24.126 2.957 C 24.341 3.204 24.561 3.471 24.779 3.736 L 24.563 4.08 Z  M 23.916 3.31 C 22.831 2.069 21.826 1.468 20.759 1.374 L 20.78 0.919 C 21.919 1.018 22.984 1.651 24.126 2.957 L 23.916 3.31 Z  M 20.759 1.374 C 19.684 1.28 18.535 1.698 17.17 2.495 L 17.043 2.075 C 18.454 1.251 19.649 0.82 20.78 0.919 L 20.759 1.374 Z  M 17.17 2.495 C 16.527 2.87 16.052 3.312 15.639 3.841 L 15.417 3.506 C 15.857 2.942 16.362 2.472 17.043 2.075 L 17.17 2.495 Z  M 15.639 3.841 C 15.223 4.375 14.865 5.005 14.464 5.749 L 14.201 5.477 C 14.611 4.715 14.979 4.067 15.417 3.506 L 15.639 3.841 Z  M 14.464 5.75 L 14.418 5.836 L 14.341 5.842 L 14.332 5.614 L 14.464 5.75 Z  M 14.341 5.842 C 14.112 5.858 13.921 5.897 13.731 6.002 L 13.609 5.578 C 13.838 5.451 14.062 5.405 14.324 5.386 L 14.341 5.842 Z  M 13.731 6.002 C 13.537 6.109 13.338 6.288 13.094 6.587 L 12.877 6.245 C 13.152 5.909 13.381 5.705 13.609 5.578 L 13.731 6.002 Z  M 13.094 6.587 C 12.907 6.817 12.723 7.052 12.544 7.294 L 12.315 6.966 C 12.499 6.72 12.686 6.479 12.877 6.245 L 13.094 6.587 Z  M 12.544 7.294 L 12.543 7.294 L 12.429 7.13 L 12.544 7.294 L 12.544 7.294 Z  M 12.543 7.294 C 12.365 7.533 12.191 7.776 12.02 8.024 L 11.783 7.709 C 11.957 7.457 12.134 7.209 12.316 6.965 L 12.543 7.294 Z  M 12.02 8.024 L 11.927 8.091 L 11.901 7.867 L 12.02 8.024 Z  M 11.927 8.091 C 10.643 8.375 9.602 8.686 8.672 9.186 L 8.554 8.76 C 9.505 8.25 10.567 7.932 11.876 7.642 L 11.927 8.091 Z  M 8.672 9.186 C 7.751 9.681 6.937 10.364 6.101 11.392 L 5.884 11.05 C 6.752 9.983 7.596 9.275 8.554 8.76 L 8.672 9.186 Z  M 6.101 11.392 C 5.762 11.809 5.47 12.248 5.215 12.711 L 4.954 12.435 C 5.223 11.947 5.529 11.486 5.884 11.05 L 6.101 11.392 Z  M 5.215 12.711 C 4.959 13.174 4.74 13.665 4.547 14.185 L 4.255 13.978 C 4.455 13.436 4.685 12.923 4.954 12.435 L 5.215 12.711 Z  M 4.547 14.185 L 4.523 14.234 L 4.401 14.082 L 4.547 14.185 Z  M 4.523 14.234 C 4.336 14.52 4.15 14.81 3.95 15.06 L 3.73 14.72 C 3.923 14.479 4.101 14.202 4.28 13.929 L 4.523 14.234 Z  M 3.95 15.06 C 3.74 15.322 3.513 15.545 3.25 15.685 L 3.132 15.259 C 3.351 15.142 3.547 14.949 3.73 14.72 L 3.95 15.06 Z  M 3.25 15.685 L 3.249 15.685 L 3.191 15.472 L 3.25 15.685 Z  M 3.249 15.685 C 3.038 15.797 2.935 15.854 2.819 15.785 L 2.946 15.365 C 2.951 15.368 3.004 15.328 3.133 15.259 L 3.249 15.685 Z  M 2.819 15.785 L 2.818 15.784 L 2.882 15.574 L 2.819 15.784 L 2.819 15.785 Z  M 2.818 15.784 C 2.695 15.712 2.661 15.571 2.584 15.289 L 2.892 15.131 C 2.936 15.291 2.935 15.359 2.946 15.366 L 2.818 15.784 Z  M 2.584 15.289 L 2.541 15.131 L 2.64 15.028 L 2.738 15.21 L 2.584 15.289 Z  M 2.64 15.027 C 2.942 14.713 2.971 14.086 2.998 13.483 L 3.327 13.511 C 3.295 14.217 3.261 14.95 2.836 15.392 L 2.64 15.027 Z  M 2.998 13.483 L 3.008 13.265 L 3.337 13.297 L 3.327 13.511 L 2.998 13.483 Z  M 3.008 13.265 L 3.02 13.043 L 3.181 13.053 L 3.173 13.281 L 3.008 13.265 Z  M 3.181 13.053 C 3.452 13.071 3.575 13.336 3.708 13.622 L 3.432 13.868 C 3.346 13.685 3.267 13.516 3.164 13.509 L 3.181 13.053 Z  M 3.708 13.622 C 3.745 13.702 3.783 13.785 3.824 13.856 L 3.567 14.139 C 3.516 14.049 3.473 13.958 3.432 13.868 L 3.708 13.622 Z  M 3.856 14.046 L 3.781 14.512 L 3.567 14.139 L 3.696 13.997 L 3.856 14.046 Z  M 3.535 13.948 C 3.591 13.604 3.633 13.152 3.573 12.783 L 3.892 12.683 C 3.965 13.135 3.919 13.655 3.856 14.046 L 3.535 13.948 Z  M 3.573 12.783 C 3.535 12.548 3.453 12.346 3.301 12.237 L 3.451 11.831 C 3.702 12.012 3.834 12.325 3.892 12.683 L 3.573 12.783 Z  M 3.301 12.237 L 3.171 12.144 L 3.222 11.955 L 3.376 12.034 L 3.301 12.237 Z  M 3.222 11.955 L 3.318 11.611 L 3.623 11.777 L 3.53 12.113 L 3.222 11.955 Z  M 3.318 11.611 L 3.468 11.058 L 3.779 11.207 C 3.732 11.392 3.677 11.587 3.623 11.777 L 3.318 11.611 Z  M 3.596 10.908 L 3.871 10.842 L 3.779 11.207 L 3.623 11.133 L 3.596 10.908 Z  M 3.651 11.357 C 3.333 11.433 2.632 11.979 2.123 12.71 L 1.886 12.395 C 2.441 11.596 3.229 10.995 3.596 10.907 L 3.651 11.357 Z  M 2.123 12.71 C 1.939 12.975 1.783 13.262 1.684 13.554 L 1.387 13.364 C 1.503 13.019 1.68 12.692 1.886 12.395 L 2.123 12.71 Z  M 1.684 13.554 C 1.59 13.833 1.547 14.118 1.582 14.395 L 1.258 14.471 C 1.211 14.096 1.265 13.722 1.386 13.364 L 1.684 13.554 Z  M 1.582 14.395 C 1.613 14.646 1.71 14.899 1.894 15.144 L 1.666 15.473 C 1.429 15.156 1.301 14.817 1.258 14.471 L 1.582 14.395 Z  M 1.894 15.144 L 1.939 15.254 L 1.78 15.309 L 1.894 15.144 Z  M 1.939 15.254 C 1.981 15.49 2.018 15.689 2.059 15.869 L 1.746 16.004 C 1.704 15.818 1.664 15.609 1.621 15.363 L 1.939 15.254 Z  M 2.059 15.869 C 2.098 16.041 2.14 16.196 2.194 16.349 L 1.897 16.545 C 1.838 16.374 1.791 16.199 1.746 16.004 L 2.059 15.869 Z  M 2.194 16.349 C 2.312 16.69 2.499 16.898 2.714 16.994 L 2.614 17.428 C 2.317 17.296 2.059 17.011 1.897 16.545 L 2.194 16.349 Z  M 2.714 16.994 C 2.966 17.106 3.258 17.071 3.532 16.924 L 3.651 17.347 C 3.309 17.532 2.939 17.573 2.614 17.428 L 2.714 16.994 Z  M 3.532 16.924 L 3.817 16.769 L 3.752 17.184 L 3.591 17.135 L 3.532 16.924 Z  M 3.752 17.183 C 3.674 17.676 3.628 18.192 3.612 18.775 L 3.283 18.759 C 3.3 18.15 3.349 17.608 3.431 17.087 L 3.752 17.183 Z  M 3.612 18.775 C 3.596 19.358 3.612 20.012 3.66 20.782 L 3.331 20.819 C 3.283 20.04 3.267 19.368 3.283 18.76 L 3.612 18.775 Z  M 3.66 20.782 C 3.671 20.962 3.685 21.143 3.703 21.322 L 3.378 21.383 C 3.359 21.196 3.343 21.008 3.331 20.819 L 3.66 20.782 Z  M 3.703 21.322 C 3.722 21.508 3.745 21.694 3.77 21.879 L 3.448 21.964 C 3.421 21.771 3.398 21.577 3.378 21.383 L 3.703 21.322 Z  M 3.77 21.879 L 3.763 22 L 3.609 21.921" fill="rgb(0,0,0)"/><g><mask id="_mask_kOlpxiZjkYJ2aypnNi890plx6VllqIUs" x="-200%" y="-200%" width="400%" height="400%"><rect x="-200%" y="-200%" width="400%" height="400%" style="fill:white;"/><path d=" M 11.991 8.23 L 9.828 8.717 L 7.854 9.917 L 6.177 11.38 L 4.582 14.081 L 3.68 15.405 L 2.809 15.85 L 2.579 15.069 L 2.982 14.262 L 3.073 13.124 L 3.343 13.139 L 3.638 13.512 L 3.558 12.353 L 3.231 12.049 L 3.241 11.607 L 2.466 12.215 L 1.765 13.362 L 1.619 14.389 L 1.919 15.211 L 2.2 16.606 L 2.769 16.98 L 3.367 16.939 L 3.935 16.482 L 3.556 19.145 L 3.935 22.108 L 3.518 23.477 L 2.153 25.516 L 2.396 26.735 L 3.042 28.147 L 4.261 29.337 L 4.908 29.46 L 5.627 29.494 L 5.178 32.048 L 6.828 32.985 L 8.883 33.36 L 9.586 32.723 L 9.64 30.998 L 10.424 29.197 L 10.478 27.772 L 12.371 27.96 L 14.129 27.735 L 12.371 29.197 L 12.667 30.958 L 13.776 33.358 L 14.858 33.996 L 15.723 33.508 L 16.075 32.533 L 17.886 30.62 L 18.238 31.033 L 21.077 31.183 L 21.645 30.545 L 21.699 29.42 L 21.51 28.932 L 21.374 25.894 L 20.428 23.269 L 20.59 22.106 L 21.158 22.519 L 22.753 24.582 L 23.538 24.657 L 24.403 24.169 L 25.268 23.269 L 25.701 21.319 L 28.243 21.544 L 29.784 20.719 L 31.028 19.106 L 31.92 16.781 L 32.137 14.043 L 31.947 10.855 L 31.461 8.004 L 30.974 7.104 L 30.298 6.804 L 29.108 8.604 L 28.026 9.129 L 27.079 6.954 L 26.133 5.754 L 25.619 5.304 L 23.564 2.941 L 21.914 1.703 L 20.265 1.516 L 18.345 1.966 L 16.668 2.829 L 15.506 4.142 L 14.586 5.682 L 13.639 6.057 L 11.991 8.23 Z " fill-rule="evenodd" fill="black" stroke="none"/></mask><path d=" M 11.991 8.23 L 9.828 8.717 L 7.854 9.917 L 6.177 11.38 L 4.582 14.081 L 3.68 15.405 L 2.809 15.85 L 2.579 15.069 L 2.982 14.262 L 3.073 13.124 L 3.343 13.139 L 3.638 13.512 L 3.558 12.353 L 3.231 12.049 L 3.241 11.607 L 2.466 12.215 L 1.765 13.362 L 1.619 14.389 L 1.919 15.211 L 2.2 16.606 L 2.769 16.98 L 3.367 16.939 L 3.935 16.482 L 3.556 19.145 L 3.935 22.108 L 3.518 23.477 L 2.153 25.516 L 2.396 26.735 L 3.042 28.147 L 4.261 29.337 L 4.908 29.46 L 5.627 29.494 L 5.178 32.048 L 6.828 32.985 L 8.883 33.36 L 9.586 32.723 L 9.64 30.998 L 10.424 29.197 L 10.478 27.772 L 12.371 27.96 L 14.129 27.735 L 12.371 29.197 L 12.667 30.958 L 13.776 33.358 L 14.858 33.996 L 15.723 33.508 L 16.075 32.533 L 17.886 30.62 L 18.238 31.033 L 21.077 31.183 L 21.645 30.545 L 21.699 29.42 L 21.51 28.932 L 21.374 25.894 L 20.428 23.269 L 20.59 22.106 L 21.158 22.519 L 22.753 24.582 L 23.538 24.657 L 24.403 24.169 L 25.268 23.269 L 25.701 21.319 L 28.243 21.544 L 29.784 20.719 L 31.028 19.106 L 31.92 16.781 L 32.137 14.043 L 31.947 10.855 L 31.461 8.004 L 30.974 7.104 L 30.298 6.804 L 29.108 8.604 L 28.026 9.129 L 27.079 6.954 L 26.133 5.754 L 25.619 5.304 L 23.564 2.941 L 21.914 1.703 L 20.265 1.516 L 18.345 1.966 L 16.668 2.829 L 15.506 4.142 L 14.586 5.682 L 13.639 6.057 L 11.991 8.23 Z " fill-rule="evenodd" fill="rgb(255,240,28)" mask="url(#_mask_kOlpxiZjkYJ2aypnNi890plx6VllqIUs)" vector-effect="non-scaling-stroke" stroke-width="0.074" stroke="rgb(31,25,23)" stroke-linejoin="miter" stroke-linecap="butt" stroke-miterlimit="10"/><path d=" M 11.991 8.23 L 9.828 8.717 L 7.854 9.917 L 6.177 11.38 L 4.582 14.081 L 3.68 15.405 L 2.809 15.85 L 2.579 15.069 L 2.982 14.262 L 3.073 13.124 L 3.343 13.139 L 3.638 13.512 L 3.558 12.353 L 3.231 12.049 L 3.241 11.607 L 2.466 12.215 L 1.765 13.362 L 1.619 14.389 L 1.919 15.211 L 2.2 16.606 L 2.769 16.98 L 3.367 16.939 L 3.935 16.482 L 3.556 19.145 L 3.935 22.108 L 3.518 23.477 L 2.153 25.516 L 2.396 26.735 L 3.042 28.147 L 4.261 29.337 L 4.908 29.46 L 5.627 29.494 L 5.178 32.048 L 6.828 32.985 L 8.883 33.36 L 9.586 32.723 L 9.64 30.998 L 10.424 29.197 L 10.478 27.772 L 12.371 27.96 L 14.129 27.735 L 12.371 29.197 L 12.667 30.958 L 13.776 33.358 L 14.858 33.996 L 15.723 33.508 L 16.075 32.533 L 17.886 30.62 L 18.238 31.033 L 21.077 31.183 L 21.645 30.545 L 21.699 29.42 L 21.51 28.932 L 21.374 25.894 L 20.428 23.269 L 20.59 22.106 L 21.158 22.519 L 22.753 24.582 L 23.538 24.657 L 24.403 24.169 L 25.268 23.269 L 25.701 21.319 L 28.243 21.544 L 29.784 20.719 L 31.028 19.106 L 31.92 16.781 L 32.137 14.043 L 31.947 10.855 L 31.461 8.004 L 30.974 7.104 L 30.298 6.804 L 29.108 8.604 L 28.026 9.129 L 27.079 6.954 L 26.133 5.754 L 25.619 5.304 L 23.564 2.941 L 21.914 1.703 L 20.265 1.516 L 18.345 1.966 L 16.668 2.829 L 15.506 4.142 L 14.586 5.682 L 13.639 6.057 L 11.991 8.23 Z " fill-rule="evenodd" fill="rgb(255,240,28)"/><g><path d=" M 5.717 15.001 C 3.864 17.999 4.276 21.635 4.789 25.197 L 3.967 22.316 L 3.664 19.674 L 3.75 16.973 L 4.53 14.392 L 5.699 11.991 L 7.516 9.89 L 9.507 8.749 L 11.844 8.329 L 9.68 11.751 C 7.942 12.532 6.917 13.059 5.717 15.001" fill-rule="evenodd" fill="rgb(253,247,186)"/><path d=" M 14.44 5.867 C 13.151 7.61 12.448 8.925 11.628 10.966 C 11.042 12.426 10.384 13.833 9.767 15.272 C 9.455 16.001 9.426 16.612 9.333 17.452 L 8.424 15.952 L 8.857 14.151 L 10.328 10.489 L 13.444 6.227 L 14.44 5.867 M 20.802 1.545 C 19.77 2.081 18.057 2.258 17.938 3.901 C 17.854 5.068 18.001 5.654 18.508 6.888 C 17.256 5.091 16.946 5.369 14.527 5.927 L 15.565 3.886 L 17.383 2.326 L 19.72 1.605 L 20.802 1.545" fill-rule="evenodd" fill="rgb(253,247,186)"/></g><g><path d=" M 23.649 23.762 C 23.992 24.056 23.985 24.269 23.928 24.471 L 24.74 24.02 L 25.267 23.04 L 25.658 21.643 L 25.159 21.122 L 22.976 21.508 L 22.813 22.12 L 22.86 22.99 L 23.069 23.505 L 23.394 23.731 L 23.649 23.763 M 23.447 18.585 C 22.352 19.023 22.361 19.144 22.038 20.65 C 22.464 19.7 22.78 19.221 23.447 18.585 Z  M 30.722 7.317 C 30.528 7.442 30.339 7.502 30.217 7.749 C 29.955 8.28 29.731 8.727 29.297 9.1 C 29.079 9.288 28.854 9.41 28.622 9.509 C 28.431 9.592 28.316 9.518 28.152 9.681 L 28.443 9.752 L 29.083 9.752 L 29.873 9.075 L 30.337 8.399 L 30.722 7.317 M 13.291 10.685 C 12.861 12.319 12.485 13.719 11.832 15.198 C 12.668 13.95 13.175 12.888 13.653 11.476 C 13.839 10.928 13.874 10.284 14.392 10.523 C 14.416 11.071 14.499 11.619 14.522 12.166 C 14.803 9.384 15.591 8.221 17.425 7.142 L 15.869 7.4 L 14.406 7.85 L 13.686 9.3 L 13.291 10.685 M 16.845 10.619 C 17.24 13.201 17.809 15.679 18.057 18.302 C 18.218 20.007 18.236 20.826 17.617 22.296 C 16.942 22.236 16.522 22.342 15.868 22.639 C 13.266 23.822 11.774 25.561 10.021 22.056 L 11.7 23.154 L 12.897 22.828 L 15.011 21.12 L 16.66 20.669 L 17.194 17.577 L 16.799 13.486 L 16.753 11.553 L 16.845 10.62 M 21.326 26.598 C 21.107 28.696 21.829 29.824 21.53 30.403 C 21.446 30.566 21.331 30.854 21.203 30.932 C 20.746 31.212 20.117 30.879 20.072 31.043 L 18.562 31.043 L 17.958 30.689 L 18.887 29.175 L 19.793 26.437 L 20.374 23.667 L 20.676 23.667 L 21.326 26.599" fill-rule="evenodd" fill="rgb(237,215,73)"/><path d=" M 18.789 20.499 C 18.912 21.452 19.125 21.678 19.448 22.6 C 19.233 24.104 18.887 25.893 18.471 27.22 C 18.296 27.78 18.155 28.089 17.846 28.521 C 17.324 29.252 16.796 29.889 16.205 30.522 C 15.779 30.978 15.481 30.749 14.956 30.647 C 14.732 31.209 14.67 31.521 14.259 31.806 C 13.626 32.245 13.06 31.299 12.564 30.743 L 13.638 33.073 L 14.382 34.04 L 15.009 34.169 L 15.844 33.46 L 16.286 32.301 L 17.215 31.335 L 18.353 29.982 L 19.073 28.564 L 19.723 26.889 L 20.558 23.41 L 20.628 22.09 L 19.583 21.445 C 19.327 21.112 19.043 20.833 18.787 20.5 M 10.458 27.209 C 11.63 27.209 12.868 27.119 13.941 26.436 C 14.245 25.804 14.545 25.287 14.917 24.729 C 14.578 25.615 14.472 26.116 14.383 27.112 L 14.034 27.82 L 11.387 27.917 L 10.527 27.788 L 10.435 27.659 L 10.458 27.208 M 10.295 26.082 L 10.204 24.938 C 10.004 26.61 10.052 27.731 9.497 29.228 C 9.082 29.894 8.572 30.5 7.989 30.825 C 8.038 31.235 8.053 31.492 8.024 31.793 C 7.921 32.876 6.359 32.397 5.717 32.354 L 8.809 33.459 L 9.506 33.072 L 9.738 31.204 L 10.389 29.529 L 10.505 28.498 L 10.296 26.082 M 8.554 16.643 C 8.521 17.456 8.483 17.794 8.742 18.513 C 9.07 19.426 9.474 20.283 9.831 21.185 L 9.947 19.381 L 8.554 16.643 M 3.786 22.785 L 3.484 23.675 C 3.761 24.968 4.007 25.787 4.534 26.916 C 4.442 27.374 4.374 27.574 4.162 27.947 C 3.699 27.848 3.287 27.819 2.817 27.821 L 4.373 29.497 L 5.139 29.303 L 5.905 28.24 L 4.814 25.889 L 3.786 22.785 M 30.724 6.888 C 31.04 8.859 31.447 10.678 31.41 12.698 C 31.363 15.174 31.015 18.303 29.361 19.797 C 27.508 21.47 25.332 20.679 23.3 19.962 L 25.785 21.379 L 28.107 21.54 L 29.686 20.896 L 30.917 19.479 L 31.846 16.772 L 32.194 13.647 L 31.916 10.587 L 31.406 7.559 L 30.725 6.888 M 3.074 12.762 C 2.233 13.522 1.902 13.855 1.994 15.263 L 2.246 16.527 L 2.602 16.862 L 3.042 17.065 L 3.839 16.804 L 4.248 15.045 L 3.116 15.815 L 2.854 15.815 L 2.561 15.19 L 2.917 14.463 L 3.106 13.082 L 3.347 13.184 L 3.64 13.504 L 3.599 12.777 L 3.399 12.312 L 3.2 12.079 L 3.075 12.762 M 21.947 1.674 C 22.693 2.635 23.61 3.47 24.207 4.646 C 24.438 5.101 24.695 5.334 24.203 5.976 C 24.723 5.77 24.915 5.793 25.332 5.863 C 26.088 5.99 26.797 7.481 26.843 8.551 C 26.834 8.651 26.632 8.877 26.047 9.102 C 26.036 9.133 25.717 9.041 25.725 9.071 C 25.786 9.302 25.867 9.337 25.991 9.444 C 26.018 9.701 26.036 10.097 26.161 10.377 C 26.53 10.368 26.889 10.424 27.249 10.523 C 27.371 10.802 27.352 11.081 27.342 11.36 L 27.76 11.264 L 27.644 9.943 L 28.016 9.073 L 27.482 7.398 L 26.46 6.045 L 26.361 6.039 L 25.212 5.06 L 23.338 2.933 L 21.946 1.673 M 23.202 9.608 C 23.163 9.703 23.103 9.856 23.027 9.962 C 23.338 10.37 23.492 10.643 23.603 11.22 L 22.548 11.946 L 21.656 13.133 C 21.264 12.84 21.167 12.616 20.977 12.059 C 20.757 12.14 20.547 12.218 20.366 12.126 C 20.481 12.127 20.553 12.087 20.668 11.988 L 21.236 11.169 L 22.239 10.116 L 22.895 9.819 C 22.979 9.771 23.119 9.656 23.203 9.609" fill-rule="evenodd" fill="rgb(237,215,73)"/><path d=" M 24.175 11.065 C 23.056 11.9 21.985 12.74 21.413 14.327 C 21.413 12.313 22.871 11.427 24.175 11.065 Z  M 21.19 7.104 C 20.36 7.889 19.772 9.474 19.846 11.019 C 19.576 9.681 19.671 8.418 20.502 7.494 L 20.922 7.211 L 21.19 7.104" fill-rule="evenodd" fill="rgb(237,215,73)"/></g><path d=" M 22.777 19.027 C 22.949 18.898 23.26 18.719 23.432 18.59 C 23.255 18.631 22.939 18.722 22.762 18.762 C 22.291 18.873 22.235 19.03 22.162 19.674 L 22.046 20.657 C 22.138 20.315 22.249 19.915 22.357 19.588 C 22.471 19.242 22.535 19.21 22.777 19.027 L 22.777 19.027 Z  M 14.027 2.44 C 14.397 1.669 14.611 1.418 15.181 0.93 C 14.407 1.189 14.259 1.387 14.027 2.44 Z  M 13.905 4.139 C 14.553 2.331 15.044 1.665 16.402 0.777 C 14.866 1.299 14.415 1.67 13.905 4.139 Z  M 0.016 13.552 C 0.159 12.646 0.291 12.305 0.694 11.561 C 0.041 12.193 -0.044 12.453 0.016 13.552 Z  M 14.553 28.707 L 14.494 28.048 C 14.459 27.65 14.46 27.326 14.483 26.925 L 14.549 25.762 C 14.467 26.156 14.304 26.55 14.223 26.945 C 14.191 27.102 14.164 27.23 14.148 27.348 C 12.933 27.692 11.726 27.714 10.511 27.413 C 10.433 26.789 10.339 26.138 10.26 25.672 C 10.236 26.194 10.251 27.638 10.249 28.446 C 10.248 29.073 10.229 29.286 9.996 29.82 C 9.778 30.319 9.686 30.432 9.38 31.275 C 9.406 31.806 9.406 32.158 9.304 32.663 C 9.135 33.502 7.426 32.852 6.975 32.68 C 6.42 32.47 5.273 32.156 5.561 31.13 C 5.815 30.227 5.976 29.274 6.1 28.01 C 5.083 25.978 4.137 23.193 3.956 20.726 C 3.815 18.81 3.9 17.631 4.198 16.459 C 4.672 14.602 5.335 12.995 6.398 11.7 C 7.832 9.955 9.173 9.254 11.272 8.811 C 10.767 9.594 10.267 10.423 9.723 11.312 C 9.172 12.212 8.845 13.12 8.495 14.104 C 8.011 15.463 8.022 15.98 8.663 17.173 C 9.215 18.202 9.513 18.665 9.754 19.671 C 9.555 20.24 9.482 20.721 9.415 21.498 C 10.091 22.523 10.594 23.225 11.25 23.442 C 11.894 23.655 12.432 23.613 13.008 23.205 C 14.287 22.298 15.471 21.126 16.915 21.078 C 17.582 18.801 17.515 16.898 17.194 14.696 C 16.975 13.191 16.887 11.767 16.819 10.233 C 16.549 11.812 16.498 13.201 16.699 14.775 C 16.941 16.671 17.129 18.766 16.456 20.432 C 15.151 20.571 14.032 21.672 12.856 22.517 C 12.383 22.857 11.891 22.89 11.368 22.69 C 10.882 22.505 10.554 22.06 10.031 21.222 C 10.023 20.382 10.159 19.994 10.437 19.233 C 10.885 18.011 11.378 16.873 11.92 15.671 C 11.256 16.781 10.628 17.708 10.106 18.825 C 9.907 18.036 9.622 17.636 9.149 16.748 C 8.688 15.881 8.639 15.502 8.984 14.498 C 9.331 13.49 9.625 12.604 10.216 11.719 C 11.237 10.191 12.171 8.49 13.287 6.984 C 13.893 6.168 14.139 6.195 14.943 6.026 C 15.669 5.874 16.379 5.681 17.12 5.442 C 16.403 5.536 15.71 5.569 15.013 5.593 L 14.991 5.594 C 15.678 4.378 16.076 3.7 17.191 3.029 C 19.935 1.376 21.679 1.197 23.834 3.71 C 24.393 4.362 24.881 4.994 25.447 5.556 C 25.242 5.58 25.065 5.631 24.831 5.758 C 25.116 5.683 25.445 5.758 25.741 5.833 C 25.824 5.907 25.909 5.98 25.996 6.052 C 26.396 6.378 26.623 6.559 26.894 7.082 C 27.179 7.634 27.418 8.186 27.628 8.794 C 27.49 8.726 27.375 8.668 27.272 8.626 C 27.194 8.577 27.111 8.546 27.026 8.534 C 26.853 8.511 26.688 8.57 26.55 8.688 L 26.533 8.699 C 26.312 8.848 25.97 9.018 25.74 9.07 C 25.857 9.126 26.116 9.148 26.238 9.08 C 26.254 9.071 26.271 9.064 26.288 9.059 C 26.233 9.189 26.197 9.336 26.186 9.496 C 26.172 9.699 26.2 9.904 26.268 10.086 L 26.268 10.088 C 26.289 10.155 26.318 10.218 26.35 10.262 C 26.245 10.316 26.138 10.377 26.027 10.444 C 26.539 10.335 27 10.317 27.499 10.408 L 27.596 11.093 L 27.411 11.113 L 27.396 11.115 C 27.16 10.853 26.896 10.897 26.537 11.011 C 25.444 11.357 25.701 12.208 25.198 13.489 C 25.72 12.604 25.681 11.678 26.532 11.398 C 26.73 11.333 26.865 11.252 27 11.28 C 26.758 11.448 26.549 11.728 26.466 12.052 C 26.233 12.967 26.378 13.738 26.121 14.592 C 26.439 13.828 26.458 13.083 26.742 12.279 C 26.844 11.99 27.223 11.528 27.456 11.521 L 27.647 11.516 C 27.703 12.024 27.737 12.529 27.716 12.948 C 27.676 13.712 27.533 14.846 27.447 15.28 C 27.735 14.767 27.866 13.679 27.993 12.914 C 28.124 12.117 28.091 11.161 27.976 10.305 C 27.818 9.13 28.69 9.321 29.196 8.768 C 29.568 8.361 29.824 7.711 30.166 7.251 C 30.504 6.794 31.037 7.465 31.17 7.911 C 31.748 9.848 32.011 12.896 31.858 14.849 C 31.687 17.04 30.924 19.433 29.53 20.512 C 27.754 21.887 25.659 21.047 23.895 20.222 C 23.518 20.046 23.255 19.79 22.925 19.5 C 23.015 20.063 23.056 20.659 22.936 21.222 C 22.746 22.114 22.438 23.574 23.312 23.843 C 23.644 23.945 23.795 23.93 24.264 23.595 C 23.884 23.714 23.692 23.684 23.432 23.618 C 23.195 23.557 23.07 23.349 23.003 23.103 C 23.086 23.186 23.221 23.231 23.451 23.308 C 24.099 23.524 24.716 23.092 24.836 22.469 C 24.907 22.105 24.895 21.914 25.044 21.419 C 25.181 21.477 25.319 21.53 25.458 21.576 L 25.217 22.665 C 25.01 23.606 24.198 24.365 23.483 24.348 C 22.821 24.332 22.401 23.757 21.944 23.193 L 21.026 22.065 C 20.203 21.704 19.543 21.283 18.778 20.498 C 19.322 21.385 19.691 21.876 20.449 22.317 C 20.338 23.878 19.947 25.016 19.613 26.51 C 19.462 27.186 18.271 29.892 17.941 30.156 C 17.705 30.344 16.231 32.067 15.953 32.295 C 15.747 32.676 15.565 33.201 15.255 33.429 C 14.308 34.123 13.7 32.794 13.191 31.671 C 12.959 31.16 12.315 29.687 12.877 29.274 C 13.408 28.884 13.705 28.606 14.247 28.113 C 14.326 28.314 14.463 28.508 14.552 28.709 L 14.553 28.707 Z  M 17.844 31.087 C 17.365 31.624 16.559 32.575 16.402 32.694 C 16.119 33.28 16.084 33.643 15.631 33.983 C 14.281 34.996 13.564 33.821 12.765 32.113 C 12.384 31.299 11.552 29.44 12.435 28.81 C 12.807 28.545 13.09 28.346 13.372 28.119 C 12.445 28.278 11.535 28.28 10.589 28.083 L 10.632 28.53 C 10.694 29.247 10.714 29.467 10.433 30.044 C 10.228 30.465 10.15 30.587 9.902 31.353 C 9.947 31.975 9.928 32.325 9.801 32.977 C 9.52 34.425 7.57 33.631 6.776 33.333 C 5.82 32.975 4.454 32.64 5.015 30.936 C 5.146 30.537 5.249 30.128 5.327 29.739 C 4.491 30.252 3.33 29.163 2.777 28.394 C 2.25 27.662 1.965 26.813 1.865 25.988 C 1.78 25.286 1.858 25.29 2.218 24.794 L 3.208 23.433 L 3.609 21.924 C 3.557 21.548 3.518 21.173 3.495 20.802 C 3.4 19.254 3.431 18.152 3.591 17.138 C 3.009 17.453 2.342 17.306 2.045 16.45 C 1.932 16.124 1.865 15.793 1.78 15.311 C 0.483 13.577 2.914 11.306 3.623 11.135 C 3.542 11.454 3.453 11.747 3.375 12.036 C 3.856 12.382 3.797 13.366 3.695 13.999 C 3.522 13.697 3.426 13.301 3.172 13.284 C 3.134 14 3.141 14.792 2.737 15.212 C 2.857 15.655 2.85 15.656 3.19 15.475 C 3.672 15.218 4.035 14.644 4.4 14.084 C 4.793 13.022 5.297 12.076 5.991 11.224 C 7.695 9.128 9.306 8.443 11.899 7.869 C 12.245 7.369 12.601 6.887 12.984 6.418 C 13.503 5.783 13.84 5.652 14.33 5.616 C 15.142 4.11 15.781 3.061 17.105 2.288 C 19.88 0.668 21.792 0.59 24.019 3.137 C 24.755 3.978 25.383 4.865 26.191 5.568 C 26.601 5.923 26.893 6.179 27.204 6.692 C 27.594 7.337 27.913 7.982 28.134 8.812 C 28.421 8.648 28.748 8.494 29.012 8.182 C 29.353 7.778 29.57 7.102 29.885 6.658 C 30.304 6.069 31.26 6.78 31.472 7.341 C 32.192 9.252 32.486 12.773 32.333 14.867 C 32.144 17.456 31.375 19.903 29.732 21.121 C 28.614 21.948 27.113 22.025 25.829 21.688 L 25.58 22.828 C 25.33 23.966 24.356 24.896 23.504 24.951 C 22.687 25.005 22.244 24.419 21.707 23.703 L 20.864 22.576 C 20.847 22.832 20.823 23.077 20.793 23.315 C 21.014 23.921 21.12 24.455 21.31 25.081 C 21.519 25.769 21.62 26.221 21.634 26.958 L 21.672 28.92 C 21.882 29.439 21.901 29.565 21.87 30.158 C 21.805 31.408 21.309 31.528 20.482 31.52 C 20.206 31.518 19.166 31.527 18.9 31.5 C 18.373 31.448 18.026 31.392 17.844 31.09 L 17.844 31.087 Z  M 20.634 24.266 C 20.467 25.091 20.243 25.869 20.039 26.761 C 19.846 27.605 18.855 30.057 18.271 30.651 C 18.385 30.769 18.593 30.815 18.965 30.859 C 19.227 30.891 20.263 30.898 20.523 30.903 C 21.095 30.917 21.313 30.857 21.371 29.953 C 21.399 29.51 21.374 29.428 21.215 29.04 L 21.172 26.964 C 21.159 26.307 21.068 25.93 20.882 25.318 C 20.771 24.952 20.711 24.611 20.634 24.266 L 20.634 24.266 Z  M 3.195 12.941 C 3.324 12.921 3.402 13.015 3.502 13.152 C 3.484 12.823 3.441 12.579 3.273 12.445 C 3.262 12.498 3.251 12.552 3.24 12.606 C 3.22 12.712 3.206 12.824 3.196 12.942 L 3.195 12.941 Z  M 4.002 15.32 C 3.91 15.652 3.824 15.994 3.743 16.348 L 3.704 16.524 C 3.215 16.811 2.572 16.994 2.326 16.281 C 2.207 15.935 2.139 15.597 2.052 15.159 C 1.247 14.002 2.451 12.476 3.106 11.927 C 3.011 12.21 2.944 12.425 2.898 12.645 C 2.698 13.6 2.988 14.453 2.363 15.145 C 2.657 15.967 2.643 16.296 3.327 15.915 C 3.59 15.769 3.808 15.563 4.002 15.32 L 4.002 15.32 Z  M 3.814 23.105 C 4.185 24.882 4.816 26.628 5.515 28.098 L 5.515 28.124 C 5.471 28.376 5.421 28.622 5.314 28.82 C 4.814 29.748 3.542 28.386 3.174 27.864 C 2.772 27.294 2.502 26.619 2.438 25.986 C 2.391 25.524 2.437 25.513 2.669 25.187 L 3.608 23.868 L 3.814 23.106 L 3.814 23.105 Z  M 27.494 8.838 C 27.565 8.936 27.623 9.053 27.662 9.181 C 27.684 9.153 27.707 9.127 27.731 9.103 L 27.642 8.832 L 27.494 8.838 L 27.494 8.838 Z  M 21.368 12.035 C 21.305 11.851 21.272 11.651 21.271 11.447 C 21.031 11.713 20.77 11.965 20.499 12.111 C 20.873 11.648 21.381 10.556 21.749 10.211 C 22.166 9.82 22.733 9.896 23.22 9.584 C 23.054 9.793 22.841 9.962 22.624 10.123 C 22.863 10.244 23.069 10.489 23.187 10.832 C 23.235 10.972 23.266 11.123 23.278 11.278 C 23.606 11.129 23.927 11.059 24.198 11.064 C 23.228 11.442 22.195 12.326 21.484 13.496 C 21.564 13.191 21.675 12.915 21.81 12.669 C 21.623 12.534 21.466 12.318 21.369 12.035 L 21.368 12.035 Z  M 16.868 7.165 C 16.332 7.456 15.844 7.673 15.321 7.855 C 14.844 8.724 14.553 9.174 14.444 10.339 C 14.315 9.193 14.288 8.981 14.656 8.125 C 14.549 8.2 14.45 8.304 14.308 8.472 C 13.794 9.081 13.125 11.474 12.857 12.331 C 13.027 11.301 13.558 8.726 14.106 7.975 C 14.466 7.482 14.547 7.493 15.055 7.427 L 16.868 7.166 L 16.868 7.165 Z  M 28.054 9.663 C 28.488 9.72 28.737 9.813 29.126 9.546 C 29.852 9.048 30.385 8.235 30.732 7.263 C 30.52 8.423 30.094 9.409 29.21 9.846 C 28.776 10.061 28.496 9.838 28.054 9.663 L 28.054 9.663 Z  M 19.71 9.777 C 19.874 8.771 20.165 7.801 21.291 7.051 C 19.798 7.57 19.518 8.44 19.71 9.777 Z  M 0.35 15.195 C 0.478 13.183 0.76 12.314 1.791 10.8 C 0.498 12.064 0.176 12.638 0.35 15.195 Z " fill-rule="evenodd" fill="rgb(0,0,0)"/><path d=" M 21.562 12.361 C 21.462 12.071 21.552 11.722 21.761 11.584 C 21.97 11.446 22.222 11.569 22.322 11.859 C 22.331 11.886 22.339 11.914 22.345 11.943 C 22.145 12.149 21.962 12.391 21.808 12.672 C 21.705 12.614 21.614 12.508 21.562 12.361 M 26.236 9.853 C 26.253 9.613 26.401 9.436 26.573 9.459 C 26.746 9.483 26.873 9.696 26.857 9.937 C 26.853 9.988 26.843 10.036 26.828 10.08 C 26.67 10.117 26.512 10.181 26.349 10.265 C 26.281 10.168 26.226 9.991 26.236 9.853" fill-rule="evenodd" fill="rgb(237,215,73)"/></g></g></svg>