<?xml version="1.0" encoding="UTF-8" standalone="no"?><!-- Generator: Gravit.io --><svg xmlns="http://www.w3.org/2000/svg" xmlns:xlink="http://www.w3.org/1999/xlink" style="isolation:isolate" viewBox="0 0 120 60" width="120pt" height="60pt"><defs><clipPath id="_clipPath_yb4j5HTVXMMEfTkuLfRygUMUfBT0DPuD"><rect width="120" height="60"/></clipPath></defs><g clip-path="url(#_clipPath_yb4j5HTVXMMEfTkuLfRygUMUfBT0DPuD)"><g><path d=" M 95.386 28.343 L 95.24 28.034 L 92.053 21.993 C 91.939 21.84 91.962 21.625 92.106 21.499 L 97.146 15.577 C 97.214 15.502 97.261 15.41 97.28 15.311 L 95.809 15.695 L 89.699 17.33 C 89.51 17.381 89.423 17.326 89.329 17.169 L 85.846 11.37 C 85.786 11.257 85.699 11.16 85.593 11.088 L 85.305 12.632 L 84.336 18.085 L 84.236 18.675 C 84.22 18.863 84.124 18.932 83.955 18.986 L 76.758 21.26 C 76.662 21.294 76.55 21.337 76.437 21.439 L 82.352 23.79 L 82.179 23.927 L 78.5 26.308 C 78.354 26.404 78.237 26.417 78.073 26.343 L 73.67 24.381 C 73.011 24.086 72.419 23.696 71.958 23.13 C 70.914 21.854 71.121 20.402 72.511 19.516 C 72.976 19.229 73.475 19.002 73.997 18.84 L 81.066 16.594 C 81.263 16.532 81.355 16.444 81.393 16.228 L 82.361 10.775 C 82.536 9.813 82.63 8.807 83.101 7.916 C 83.294 7.574 83.501 7.239 83.759 6.951 C 84.695 5.913 86.002 5.872 86.991 6.862 C 87.325 7.196 87.612 7.59 87.86 7.995 L 91.092 13.355 C 91.126 13.446 91.196 13.519 91.286 13.556 C 91.376 13.592 91.478 13.589 91.565 13.548 L 99.452 11.453 C 99.996 11.309 100.545 11.257 101.102 11.361 C 102.316 11.588 102.846 12.513 102.435 13.684 C 102.248 14.218 101.925 14.669 101.563 15.095 L 96.071 21.585 C 95.92 21.761 95.917 21.888 96.021 22.085 L 99.304 28.311 C 99.566 28.808 99.766 29.323 99.772 29.894 C 99.785 31.192 98.836 32.253 97.546 32.442 C 96.825 32.539 96.151 32.394 95.476 32.186 L 90.523 30.678 C 90.388 30.658 90.287 30.543 90.284 30.406 L 89.686 26.921 C 89.68 26.889 89.69 26.853 89.696 26.783 L 95.385 28.353" fill-rule="evenodd" fill="rgb(255,240,28)"/><g><path d=" M 92.17 45.284 L 87.708 45.28 C 87.536 45.295 87.372 45.207 87.29 45.056 L 81.777 36.707 L 80.652 45.262 L 76.756 45.262 L 76.891 44.15 L 79.132 27.126 C 79.145 27.034 79.193 26.951 79.267 26.895 L 83.306 24.298 C 83.325 24.285 83.354 24.283 83.422 24.264 L 82.207 33.523 L 82.255 33.555 L 88.63 26.489 L 89.257 30.109 C 89.29 30.286 89.243 30.398 89.124 30.52 L 85.04 34.811 L 84.848 35.004 L 84.973 35.202 L 92.014 45.08 C 92.056 45.139 92.117 45.176 92.17 45.239 L 92.17 45.291 M 46.003 36.733 C 45.944 36.429 45.901 35.983 45.767 35.567 C 45.114 33.555 43.049 32.451 40.912 32.948 C 38.567 33.494 36.892 35.338 36.65 37.729 C 36.47 39.498 37.423 41.204 39.195 41.843 C 40.623 42.359 41.997 42.143 43.274 41.378 C 44.966 40.363 45.883 38.856 46.005 36.732 L 46.003 36.733 Z  M 35.707 44.204 L 35.373 46.702 L 34.952 49.959 C 34.936 50.086 34.897 50.151 34.761 50.151 L 31.552 50.147 C 31.528 50.147 31.504 50.133 31.456 50.118 L 31.651 48.579 L 32.363 43.178 L 33.204 37.007 C 33.826 33.386 36.898 30.275 40.503 29.489 C 42.593 29.037 44.592 29.246 46.418 30.422 C 48.237 31.595 49.281 33.307 49.519 35.438 C 49.855 38.464 48.741 40.978 46.591 43.055 C 45.18 44.421 43.49 45.287 41.541 45.58 C 39.534 45.883 37.646 45.548 35.963 44.364 C 35.9 44.321 35.834 44.283 35.727 44.216" fill-rule="evenodd" fill="rgb(19,19,19)"/><path d=" M 33.962 26.996 L 30.444 29.615 L 29.893 28.751 C 29.389 28.047 28.763 27.52 27.854 27.456 C 27.13 27.388 26.417 27.668 25.934 28.211 C 25.472 28.712 25.413 29.42 25.844 29.984 C 26.318 30.604 26.837 31.194 27.367 31.768 L 30.037 34.594 C 30.832 35.465 31.464 36.443 31.66 37.633 C 31.892 39.049 31.61 40.398 30.94 41.642 C 29.69 43.945 27.749 45.282 25.172 45.699 C 24.034 45.884 22.899 45.847 21.789 45.52 C 20.315 45.087 19.288 44.121 18.63 42.757 C 18.397 42.276 18.218 41.766 18.007 41.249 L 21.822 39.207 L 21.938 39.484 C 22.154 39.917 22.322 40.378 22.611 40.779 C 23.407 41.962 24.694 42.323 25.999 41.737 C 26.339 41.584 26.654 41.379 26.932 41.132 C 27.773 40.385 27.931 39.345 27.317 38.406 C 26.959 37.867 26.512 37.382 26.067 36.899 L 22.926 33.436 C 22.224 32.625 21.749 31.679 21.599 30.593 C 21.436 29.407 21.671 28.287 22.289 27.289 C 23.823 24.808 26.053 23.516 29.002 23.623 C 30.683 23.683 32.022 24.469 33.061 25.777 L 33.972 26.984 M 62.453 40.321 L 61.881 44.657 C 61.871 44.729 61.814 44.826 61.753 44.855 C 58.85 46.199 55.027 46.012 52.643 43.304 C 51.361 41.85 50.815 40.124 50.905 38.203 C 51.09 33.756 54.777 29.875 59.176 29.333 C 61.752 29.016 64.01 29.712 65.755 31.712 C 66.944 33.075 67.493 34.694 67.412 36.499 C 67.358 37.686 67.172 38.867 67.025 40.058 L 66.366 45.073 C 66.358 45.133 66.347 45.191 66.332 45.265 L 62.87 45.265 L 63.007 44.13 L 63.755 38.338 C 63.893 37.134 63.806 35.939 63.255 34.823 C 62.678 33.637 61.688 33.01 60.395 32.873 C 57.721 32.591 55.176 34.449 54.605 37.08 C 54.228 38.817 54.822 40.483 56.205 41.404 C 57.554 42.301 58.998 42.304 60.468 41.721 C 61.213 41.427 61.848 40.959 62.452 40.329 M 77.078 29.672 L 76.603 33.274 C 75.869 33.274 75.149 33.27 74.43 33.275 C 73.847 33.28 73.314 33.656 73.139 34.202 C 73.072 34.415 73.045 34.644 73.016 34.875 L 71.925 43.171 L 71.653 45.273 L 68.036 45.273 L 68.235 43.713 L 68.943 38.338 L 69.573 33.69 C 69.899 31.619 71.959 29.781 74.048 29.689 L 77.076 29.681" fill-rule="evenodd" fill="rgb(19,19,19)"/></g></g><g><path d=" M 38.804 24.43 L 39.7 24.43 L 39.489 23.083 L 38.804 24.43 Z  M 39.841 25.307 L 38.35 25.307 L 37.876 26.235 L 36.82 26.235 L 39.15 21.873 L 40.168 21.873 L 40.961 26.225 L 39.982 26.225 L 39.842 25.297" fill="rgb(106,106,106)"/><path d=" M 45.177 22.758 L 44.646 22.758 L 44.467 23.763 L 44.998 23.763 C 45.318 23.763 45.575 23.551 45.575 23.155 C 45.575 22.893 45.415 22.758 45.178 22.758 L 45.177 22.758 Z  M 43.891 21.892 L 45.286 21.892 C 46.017 21.892 46.536 22.327 46.536 23.075 C 46.536 24.016 45.87 24.65 44.923 24.65 L 44.322 24.65 L 44.04 26.244 L 43.132 26.244 L 43.9 21.891" fill="rgb(106,106,106)"/><path d=" M 49.615 24.43 L 50.511 24.43 L 50.3 23.083 L 49.615 24.43 Z  M 50.652 25.307 L 49.161 25.307 L 48.687 26.235 L 47.631 26.235 L 49.961 21.873 L 50.979 21.873 L 51.772 26.225 L 50.793 26.225 L 50.653 25.297" fill="rgb(106,106,106)"/><path d=" M 56.547 26.08 C 56.238 26.224 55.902 26.301 55.561 26.304 C 54.409 26.304 53.685 25.439 53.685 24.358 C 53.685 22.976 54.839 21.812 56.234 21.812 C 56.58 21.812 56.893 21.894 57.148 22.036 L 57.02 23.079 C 56.827 22.868 56.52 22.72 56.137 22.72 C 55.343 22.72 54.639 23.438 54.639 24.259 C 54.639 24.894 55.036 25.385 55.664 25.385 C 56.028 25.383 56.382 25.259 56.668 25.033 L 56.546 26.07 M 62.101 24.48 L 60.206 24.48 L 59.899 26.233 L 58.991 26.233 L 59.758 21.881 L 60.667 21.881 L 60.359 23.612 L 62.254 23.612 L 62.562 21.881 L 63.471 21.881 L 62.703 26.233 L 61.794 26.233 L 62.102 24.48 M 65.434 26.234 L 66.201 21.882 L 68.606 21.882 L 68.452 22.747 L 66.956 22.747 L 66.802 23.592 L 68.185 23.592 L 68.031 24.469 L 66.639 24.469 L 66.485 25.346 L 67.989 25.346 L 67.835 26.223 L 65.423 26.223" fill="rgb(106,106,106)"/></g></g></svg>