<?xml version="1.0" encoding="UTF-8" standalone="no"?><!-- Generator: Gravit.io --><svg xmlns="http://www.w3.org/2000/svg" xmlns:xlink="http://www.w3.org/1999/xlink" style="isolation:isolate" viewBox="0 0 203 81" width="203pt" height="81pt"><defs><clipPath id="_clipPath_HegUAYMXnwoWeyjGMqy2uux9G2UPjqjD"><rect width="203" height="81"/></clipPath></defs><g clip-path="url(#_clipPath_HegUAYMXnwoWeyjGMqy2uux9G2UPjqjD)"><path d=" M 8.657 64.208 C 6.638 64.208 5 62.171 5 59.66 L 5 46.852 C 5 44.341 6.641 42.305 8.657 42.305 C 10.677 42.314 12.312 44.345 12.317 46.852 L 12.317 59.663 C 12.317 62.175 10.676 64.211 8.657 64.211 L 8.657 64.208 Z  M 20.43 69.12 C 18.409 69.12 16.773 67.084 16.773 64.573 L 16.773 41.949 C 16.773 39.435 18.409 37.402 20.43 37.402 C 22.451 37.402 24.09 39.438 24.09 41.949 L 24.09 64.573 C 24.09 67.087 22.449 69.12 20.43 69.12 Z  M 32.203 73.923 C 30.182 73.923 28.546 71.887 28.546 69.375 L 28.546 37.121 C 28.546 34.606 30.187 32.573 32.203 32.573 C 34.219 32.573 35.86 34.61 35.86 37.121 L 35.86 69.369 C 35.86 71.883 34.225 73.916 32.203 73.916 L 32.203 73.923 Z  M 63.069 21.242 L 12.012 2.252 C 9.506 1.282 7.245 3.221 7.245 6.237 L 7.245 37.932 C 7.711 37.816 8.185 37.758 8.66 37.757 C 9.135 37.758 9.61 37.816 10.077 37.932 L 10.077 6.259 C 10.077 6.046 10.077 5.548 10.702 5.548 C 10.872 5.55 11.04 5.584 11.202 5.648 L 62.261 24.639 C 63.371 25.053 64.194 26.455 64.194 27.435 L 64.194 68.06 C 64.194 68.293 64.194 68.765 63.569 68.765 C 63.4 68.764 63.232 68.73 63.072 68.664 L 51.293 64.292 L 51.293 67.96 L 62.233 72.042 C 62.658 72.202 63.099 72.286 63.543 72.291 C 64.464 72.342 65.361 71.915 66.017 71.111 C 66.673 70.307 67.029 69.2 66.999 68.057 L 66.999 27.396 C 66.999 24.762 65.262 22.054 63.04 21.229 L 63.069 21.242 Z  M 43.977 78.964 C 41.955 78.964 40.32 76.928 40.32 74.417 L 40.32 32.089 C 40.32 29.577 41.961 27.538 43.977 27.538 C 45.993 27.538 47.634 29.574 47.634 32.089 L 47.634 74.453 C 47.634 76.967 45.998 79 43.977 79 L 43.977 78.964 Z " fill="rgb(0,0,0)"/><path d=" M 83.998 43.688 L 83.998 54.324 L 81.341 54.324 L 81.341 26.181 L 87.574 26.181 C 89.998 26.181 91.877 26.914 93.195 28.379 C 94.514 29.844 95.196 31.912 95.196 34.58 C 95.196 37.249 94.456 39.434 92.972 41.135 C 91.489 42.836 89.491 43.686 86.988 43.686 L 84 43.686 L 83.998 43.688 Z  M 83.998 29.164 L 83.998 40.703 L 86.781 40.703 C 88.617 40.703 90.017 40.185 90.979 39.143 C 91.942 38.101 92.427 36.634 92.427 34.738 C 92.427 31.025 90.657 29.164 87.113 29.164 L 83.998 29.164 Z  M 105.137 54.797 C 102.743 54.797 100.832 53.856 99.403 51.98 C 97.974 50.103 97.259 47.615 97.259 44.514 C 97.259 41.139 97.985 38.5 99.49 36.605 C 100.995 34.711 102.968 33.736 105.499 33.736 C 107.915 33.736 109.797 34.636 111.153 36.504 C 112.51 38.371 113.184 40.907 113.184 44.154 C 113.184 47.363 112.454 49.928 110.994 51.858 C 109.534 53.789 107.576 54.752 105.137 54.752 L 105.137 54.797 Z  M 105.325 36.468 C 103.657 36.468 102.342 37.172 101.372 38.578 C 100.402 39.985 99.918 41.924 99.918 44.397 C 99.918 46.778 100.407 48.657 101.368 50.029 C 102.329 51.402 103.662 52.09 105.307 52.09 C 106.984 52.09 108.272 51.415 109.173 50.065 C 110.074 48.715 110.526 46.802 110.526 44.316 C 110.526 41.805 110.073 39.868 109.173 38.506 C 108.274 37.145 106.984 36.466 105.307 36.466 L 105.325 36.468 Z  M 137.301 34.227 L 132.444 54.32 L 129.757 54.32 L 126.42 39.935 C 126.293 39.386 126.21 38.765 126.166 38.068 L 126.103 38.068 C 126.043 38.68 125.932 39.284 125.771 39.868 L 122.15 54.268 L 119.557 54.268 L 114.653 34.175 L 117.373 34.175 L 120.728 49.289 C 120.833 49.746 120.909 50.346 120.949 51.093 L 121.076 51.093 C 121.116 50.467 121.212 49.848 121.361 49.248 L 125.093 34.173 L 127.465 34.173 L 130.82 49.323 C 130.925 49.806 131.005 50.409 131.055 51.129 L 131.182 51.129 C 131.204 50.619 131.291 50.018 131.451 49.323 L 134.74 34.173 L 137.302 34.173 L 137.301 34.227 Z  M 152.859 45.081 L 141.404 45.081 C 141.446 47.318 141.948 49.046 142.859 50.261 C 143.769 51.476 145.062 52.061 146.667 52.061 C 148.491 52.061 150.167 51.318 151.697 49.822 L 151.697 52.844 C 150.274 54.126 148.391 54.768 146.05 54.768 C 143.762 54.768 141.965 53.854 140.657 52.029 C 139.35 50.205 138.695 47.642 138.695 44.33 C 138.695 41.18 139.41 38.653 140.838 36.684 C 142.267 34.715 144.041 33.732 146.161 33.732 C 148.281 33.732 149.92 34.582 151.08 36.281 C 152.241 37.98 152.821 40.345 152.821 43.369 L 152.821 45.056 L 152.859 45.081 Z  M 150.199 42.354 C 150.188 40.498 149.829 39.047 149.117 38.018 C 148.404 36.99 147.416 36.443 146.152 36.443 C 144.975 36.418 143.845 37.009 143.036 38.07 C 142.184 39.157 141.655 40.577 141.453 42.329 L 150.199 42.354 Z  M 165.069 37.485 C 164.616 37.053 163.981 36.837 163.107 36.837 C 162.019 36.837 161.076 37.485 160.332 38.779 C 159.589 40.073 159.217 41.839 159.217 44.08 L 159.217 54.322 L 156.624 54.322 L 156.624 34.229 L 159.217 34.229 L 159.217 38.369 L 159.281 38.369 C 159.649 36.956 160.215 35.856 160.972 35.062 C 161.73 34.267 162.579 33.876 163.52 33.876 C 164.195 33.876 164.71 33.966 165.071 34.15 L 165.071 37.485 L 165.069 37.485 Z  M 177.106 54.324 L 177.106 26.181 L 183.562 26.181 C 185.524 26.181 187.08 26.777 188.228 27.967 C 189.376 29.157 189.95 30.708 189.95 32.618 C 189.95 34.193 189.602 35.599 188.906 36.781 C 188.21 37.962 187.252 38.794 186.028 39.294 L 186.028 39.371 C 187.557 39.596 188.779 40.309 189.697 41.519 C 190.614 42.73 191.071 44.303 191.071 46.238 C 191.071 48.645 190.377 50.594 188.986 52.088 C 187.595 53.582 185.838 54.324 183.718 54.324 L 177.106 54.324 L 177.106 54.324 Z  M 179.765 29.169 L 179.765 38.236 L 182.485 38.236 C 183.939 38.236 185.085 37.8 185.917 36.931 C 186.75 36.063 187.187 34.834 187.187 33.25 C 187.187 30.517 185.736 29.148 182.835 29.148 L 179.765 29.169 Z  M 179.765 41.22 L 179.765 51.345 L 183.391 51.345 C 184.951 51.345 186.162 50.886 187.022 49.995 C 187.881 49.104 188.291 47.826 188.291 46.229 C 188.291 42.905 186.467 41.243 182.818 41.243 L 179.765 41.22 Z  M 198 54.324 L 195.343 54.324 L 195.343 26.181 L 198 26.181 L 198 54.324 Z " fill="rgb(0,0,0)"/></g></svg>