<?xml version="1.0" encoding="UTF-8" standalone="no"?><!-- Generator: Gravit.io --><svg xmlns="http://www.w3.org/2000/svg" xmlns:xlink="http://www.w3.org/1999/xlink" style="isolation:isolate" viewBox="0 0 120 60" width="120pt" height="60pt"><defs><clipPath id="_clipPath_BfiCEcab8WeKgmH5JuA01VcVIWyLwHwR"><rect width="120" height="60"/></clipPath></defs><g clip-path="url(#_clipPath_BfiCEcab8WeKgmH5JuA01VcVIWyLwHwR)"><path d=" M 60.839 29.399 L 59.047 29.399 L 59.047 22.402 C 59.038 21.71 59.064 21.017 59.125 20.328 C 59.067 20.673 58.962 21.009 58.812 21.326 L 55.53 29.464 L 54.28 29.464 L 50.993 21.407 L 50.68 20.322 C 50.758 20.783 50.758 21.474 50.758 22.474 L 50.758 29.48 L 49.038 29.48 L 49.038 18.642 L 51.617 18.642 L 54.51 25.865 L 54.978 27.095 C 55.097 26.647 55.254 26.211 55.447 25.789 L 58.416 18.567 L 60.917 18.567 L 60.839 29.399 Z  M 64.2 20.024 C 63.907 20.039 63.622 19.927 63.418 19.717 C 63.208 19.55 63.092 19.293 63.105 19.026 C 63.076 18.755 63.195 18.491 63.418 18.335 C 63.641 18.155 63.914 18.048 64.2 18.028 C 64.492 18.012 64.777 18.124 64.981 18.335 C 65.191 18.501 65.307 18.759 65.294 19.026 C 65.324 19.296 65.204 19.561 64.981 19.717 C 64.777 19.927 64.492 20.039 64.2 20.024 L 64.2 20.024 Z  M 65.058 29.399 L 63.261 29.399 L 63.261 21.639 L 65.058 21.639 L 65.058 29.399 Z  M 73.106 29.093 C 72.48 29.477 71.699 29.636 70.84 29.636 C 69.668 29.636 68.729 29.253 68.026 28.56 C 67.322 27.867 66.941 26.947 66.941 25.793 C 66.941 24.488 67.331 23.487 68.112 22.719 C 68.894 21.95 69.91 21.567 71.237 21.567 C 71.882 21.567 72.52 21.697 73.113 21.95 L 73.113 23.56 C 72.613 23.188 72.015 22.974 71.393 22.945 C 70.614 22.945 69.986 23.175 69.518 23.713 C 69.037 24.262 68.785 24.974 68.814 25.703 C 68.814 26.471 69.049 27.162 69.517 27.623 C 70 28.085 70.648 28.333 71.315 28.314 C 71.977 28.305 72.615 28.06 73.113 27.623 L 73.113 29.094 L 73.106 29.093 Z  M 79.435 23.331 C 79.152 23.165 78.826 23.086 78.496 23.102 C 77.953 23.102 77.557 23.331 77.167 23.793 C 76.777 24.254 76.624 24.878 76.624 25.713 L 76.624 29.403 L 74.826 29.403 L 74.826 21.639 L 76.624 21.639 L 76.624 23.252 C 76.772 22.758 77.04 22.31 77.405 21.946 C 77.747 21.638 78.194 21.472 78.655 21.485 C 78.898 21.482 79.139 21.534 79.358 21.639 L 79.435 23.331 Z  M 84.2 29.635 C 82.95 29.635 82.011 29.252 81.306 28.559 C 80.601 27.867 80.221 26.869 80.221 25.719 C 80.221 24.414 80.612 23.413 81.393 22.645 C 82.174 21.876 83.191 21.56 84.44 21.56 C 85.69 21.56 86.628 21.943 87.333 22.645 C 88.039 23.346 88.341 24.33 88.341 25.636 C 88.374 26.736 87.986 27.808 87.256 28.632 C 86.382 29.308 85.304 29.663 84.2 29.64 L 84.2 29.635 Z  M 84.277 22.874 Q 83.223 22.874 82.637 23.565 C 82.247 24.026 82.012 24.717 82.012 25.554 C 82.012 26.391 82.247 27.013 82.637 27.475 C 83.028 27.936 83.577 28.165 84.277 28.165 C 84.978 28.165 85.527 27.936 85.917 27.475 C 86.308 27.014 86.46 26.399 86.46 25.485 C 86.46 24.641 86.305 23.951 85.917 23.496 C 85.476 23.079 84.884 22.857 84.277 22.881 L 84.277 22.874 Z  M 89.592 29.169 L 89.592 27.552 C 90.296 28.013 90.999 28.32 91.781 28.32 Q 93.421 28.32 93.421 27.398 C 93.404 27.235 93.351 27.077 93.265 26.937 C 93.172 26.795 93.035 26.687 92.874 26.63 C 92.699 26.539 92.518 26.462 92.331 26.4 L 91.628 26.17 C 91.336 26.057 91.049 25.929 90.769 25.787 C 90.547 25.652 90.338 25.498 90.143 25.326 C 89.97 25.152 89.836 24.942 89.753 24.711 C 89.656 24.466 89.604 24.206 89.597 23.942 C 89.592 23.595 89.673 23.252 89.832 22.944 C 89.984 22.642 90.231 22.399 90.536 22.253 C 90.849 22.024 91.162 21.946 91.552 21.792 C 91.937 21.703 92.329 21.652 92.724 21.639 C 93.389 21.616 94.052 21.72 94.677 21.946 L 94.677 23.485 C 94.125 23.111 93.469 22.921 92.802 22.943 C 92.59 22.925 92.377 22.951 92.176 23.019 C 92.02 23.095 91.863 23.095 91.708 23.172 C 91.569 23.232 91.457 23.342 91.395 23.479 C 91.332 23.597 91.305 23.73 91.317 23.863 C 91.304 24.021 91.331 24.179 91.395 24.324 C 91.457 24.462 91.568 24.572 91.707 24.631 C 91.882 24.722 92.064 24.799 92.25 24.861 C 92.485 24.937 92.641 25.015 92.953 25.091 C 93.251 25.251 93.564 25.38 93.888 25.474 C 94.201 25.55 94.357 25.782 94.592 25.935 C 94.766 26.126 94.923 26.331 95.06 26.55 C 95.156 26.822 95.209 27.107 95.216 27.395 C 95.216 27.778 95.138 28.163 94.903 28.393 C 94.731 28.681 94.49 28.921 94.201 29.091 C 93.852 29.272 93.489 29.426 93.116 29.552 C 91.933 29.851 90.682 29.714 89.592 29.167 L 89.592 29.169 Z  M 100.457 29.635 C 99.207 29.635 98.269 29.252 97.564 28.559 C 96.858 27.867 96.479 26.869 96.479 25.719 C 96.479 24.414 96.869 23.413 97.65 22.645 C 98.432 21.876 99.448 21.56 100.698 21.56 C 101.947 21.56 102.886 21.943 103.591 22.645 C 104.296 23.346 104.607 24.336 104.607 25.641 C 104.64 26.742 104.252 27.814 103.522 28.638 C 102.637 29.304 101.555 29.655 100.448 29.638 L 100.457 29.635 Z  M 100.535 22.874 Q 99.481 22.874 98.895 23.565 C 98.504 24.026 98.269 24.717 98.269 25.554 C 98.269 26.391 98.504 27.013 98.895 27.475 C 99.286 27.936 99.834 28.165 100.535 28.165 C 101.236 28.165 101.785 27.936 102.175 27.475 C 102.565 27.014 102.718 26.399 102.718 25.485 C 102.718 24.641 102.562 23.951 102.175 23.496 C 101.734 23.073 101.141 22.847 100.531 22.868 L 100.535 22.874 Z  M 110.765 19.411 C 110.506 19.254 110.208 19.175 109.906 19.181 C 109.047 19.181 108.577 19.642 108.577 20.64 L 108.577 21.716 L 110.375 21.716 L 110.375 23.1 L 108.577 23.1 L 108.577 29.482 L 106.787 29.482 L 106.787 23.098 L 105.457 23.098 L 105.457 21.715 L 106.787 21.715 L 106.787 20.485 C 106.787 19.64 107.022 19.026 107.565 18.564 C 108.433 17.899 109.569 17.696 110.613 18.021 L 110.613 19.405 L 110.763 19.405 L 110.765 19.411 Z  M 115.927 29.322 Q 115.458 29.552 114.52 29.552 C 112.958 29.552 112.254 28.861 112.254 27.4 L 112.254 23.022 L 110.925 23.022 L 110.925 21.639 L 112.254 21.639 L 112.254 19.871 L 114.051 19.409 L 114.051 21.715 L 115.927 21.715 L 115.927 23.099 L 114.051 23.099 L 114.051 26.947 C 114.026 27.296 114.108 27.644 114.286 27.945 C 114.442 28.175 114.755 28.252 115.145 28.252 C 115.423 28.256 115.696 28.173 115.924 28.014 L 115.924 29.319 L 115.927 29.322 Z  M 59.991 45.356 L 57.958 45.356 L 56.942 42.591 L 52.566 42.591 L 51.627 45.358 L 49.596 45.358 L 53.737 34.524 L 55.764 34.524 L 59.991 45.356 Z  M 56.474 41.13 L 54.911 36.828 C 54.843 36.602 54.791 36.371 54.756 36.137 C 54.721 36.371 54.669 36.602 54.6 36.828 L 53.116 41.13 L 56.474 41.13 Z  M 67.111 38.359 L 62.89 43.965 L 67.109 43.965 L 67.109 45.349 L 60.382 45.349 L 60.382 44.671 L 64.76 38.98 L 60.854 38.98 L 60.854 37.596 L 67.183 37.596 L 67.183 38.359 L 67.111 38.359 Z  M 75.54 45.356 L 73.742 45.356 L 73.742 44.128 C 73.268 45.017 72.326 45.555 71.319 45.512 C 69.444 45.512 68.505 44.436 68.505 42.208 L 68.505 37.596 L 70.303 37.596 L 70.303 42.052 Q 70.303 44.126 71.943 44.126 C 72.444 44.146 72.929 43.948 73.272 43.583 C 73.623 43.148 73.815 42.606 73.815 42.046 L 73.815 37.596 L 75.611 37.596 L 75.54 45.356 Z  M 82.417 39.287 C 82.134 39.121 81.808 39.041 81.478 39.057 C 80.935 39.057 80.539 39.287 80.149 39.748 C 79.759 40.209 79.606 40.833 79.606 41.669 L 79.606 45.358 L 77.808 45.358 L 77.808 37.596 L 79.606 37.596 L 79.606 39.209 C 79.754 38.715 80.022 38.267 80.387 37.903 C 80.725 37.598 81.166 37.433 81.624 37.442 C 81.867 37.439 82.108 37.491 82.327 37.596 L 82.417 39.287 Z  M 90.387 41.976 L 84.996 41.976 C 84.996 42.667 85.231 43.282 85.699 43.667 C 86.09 44.05 86.715 44.282 87.497 44.282 C 88.345 44.3 89.174 44.029 89.848 43.513 L 89.848 44.897 Q 88.784 45.593 87.027 45.593 C 86.004 45.627 85.013 45.234 84.293 44.508 C 83.589 43.817 83.276 42.817 83.276 41.511 C 83.239 40.433 83.629 39.383 84.361 38.591 C 85.062 37.828 86.06 37.407 87.095 37.437 C 88.18 37.437 88.971 37.744 89.597 38.435 C 90.223 39.126 90.456 40.048 90.456 41.276 L 90.387 41.976 Z  M 88.667 40.746 C 88.667 40.131 88.511 39.594 88.199 39.287 C 87.896 38.913 87.429 38.71 86.949 38.744 C 86.448 38.724 85.963 38.922 85.62 39.287 C 85.229 39.67 85.077 40.131 84.994 40.746 L 88.667 40.746 Z " fill="rgb(15,15,15)"/><path d=" M 28.531 19.038 L 22.704 30.774 L 32.966 42.664 L 13.924 44.826 L 43.471 45.135 L 28.531 19.038 Z  M 27.382 14.405 L 14.004 25.601 L 4.073 42.356 L 12.527 41.508 L 27.382 14.405 Z " fill-rule="evenodd" fill="rgb(255,240,28)"/></g></svg>