<?xml version="1.0" encoding="UTF-8" standalone="no"?><!-- Generator: Gravit.io --><svg xmlns="http://www.w3.org/2000/svg" xmlns:xlink="http://www.w3.org/1999/xlink" style="isolation:isolate" viewBox="0 0 256 75" width="256pt" height="75pt"><defs><clipPath id="_clipPath_cAH0IfkGLqTbun6guB5kLMjr87TQc1xv"><rect width="256" height="75"/></clipPath></defs><g clip-path="url(#_clipPath_cAH0IfkGLqTbun6guB5kLMjr87TQc1xv)"><path d=" M 96.524 31.632 C 96.524 23.78 94.284 19.75 89.808 19.529 C 88.026 19.445 86.288 19.729 84.595 20.386 C 83.245 20.869 82.335 21.348 81.857 21.831 L 81.857 40.571 C 84.721 42.368 87.265 43.204 89.483 43.073 C 94.176 42.773 96.525 38.953 96.525 31.633 L 96.524 31.632 Z  M 102.047 31.958 C 102.047 35.958 101.112 39.258 99.23 41.891 C 97.133 44.871 94.227 46.405 90.51 46.489 C 87.71 46.589 84.824 45.701 81.854 43.861 L 81.854 60.894 L 77.05 59.18 L 77.05 21.374 C 77.838 20.407 78.853 19.577 80.082 18.872 C 82.942 17.206 86.415 16.349 90.502 16.307 L 90.57 16.375 C 94.307 16.328 97.187 17.862 99.21 20.973 C 101.097 23.827 102.043 27.473 102.043 31.957 L 102.047 31.958 Z  M 131.404 43.136 C 131.404 48.486 130.868 52.191 129.796 54.251 C 128.724 56.311 126.669 57.956 123.642 59.181 C 121.188 60.148 118.534 60.674 115.685 60.763 L 114.891 57.736 C 117.787 57.342 119.826 56.948 121.008 56.554 C 123.336 55.766 124.934 54.557 125.811 52.938 C 126.515 51.618 126.861 49.102 126.861 45.376 L 126.861 44.126 C 123.62 45.607 120.097 46.37 116.534 46.36 C 114.25 46.392 112.031 45.598 110.285 44.126 C 108.267 42.502 107.258 40.442 107.258 37.946 L 107.258 17.946 L 112.061 16.301 L 112.061 36.421 C 112.061 38.571 112.755 40.226 114.141 41.387 C 115.527 42.548 117.326 43.107 119.528 43.063 C 121.73 43.019 124.09 42.163 126.596 40.498 L 126.596 17.033 L 131.399 17.033 L 131.399 43.136 L 131.404 43.136 Z  M 150.154 46.236 L 148.572 46.304 C 145.855 46.304 143.737 45.658 142.224 44.36 C 140.716 43.062 139.959 41.26 139.959 38.984 L 139.959 20.064 L 136.659 20.064 L 136.659 17.042 L 139.959 17.042 L 139.959 9.008 L 144.757 7.3 L 144.757 17.033 L 150.154 17.033 L 150.154 20.055 L 144.757 20.055 L 144.757 38.843 C 144.757 40.646 145.24 41.923 146.207 42.669 C 147.037 43.284 148.357 43.636 150.154 43.725 L 150.154 46.227 L 150.154 46.236 Z  M 179.237 45.842 L 174.434 45.842 L 174.434 27.3 C 174.434 25.413 173.994 23.8 173.114 22.434 C 172.1 20.899 170.691 20.132 168.884 20.132 C 166.682 20.132 163.928 21.292 160.624 23.616 L 160.624 45.83 L 155.821 45.83 L 155.821 1.514 L 160.624 0 L 160.624 20.186 C 163.694 17.952 167.046 16.833 170.688 16.833 C 173.232 16.833 175.292 17.69 176.868 19.398 C 178.45 21.106 179.238 23.234 179.238 25.778 L 179.238 45.833 L 179.237 45.842 Z  M 204.77 30.875 C 204.77 27.858 204.197 25.367 203.057 23.397 C 201.701 20.995 199.594 19.729 196.745 19.597 C 191.479 19.902 188.851 23.675 188.851 30.897 C 188.851 34.213 189.398 36.983 190.501 39.197 C 191.909 42.03 194.021 43.427 196.839 43.38 C 202.126 43.338 204.769 39.165 204.769 30.856 L 204.77 30.875 Z  M 210.03 30.907 C 210.03 35.201 208.932 38.774 206.73 41.627 C 204.318 44.822 200.986 46.425 196.734 46.425 C 192.519 46.425 189.234 44.822 186.864 41.627 C 184.714 38.773 183.642 35.2 183.642 30.907 C 183.642 26.871 184.802 23.477 187.126 20.712 C 189.58 17.779 192.806 16.308 196.796 16.308 C 200.786 16.308 204.033 17.78 206.534 20.712 C 208.857 23.476 210.018 26.872 210.018 30.907 L 210.03 30.907 Z  M 237.568 45.832 L 232.765 45.832 L 232.765 26.24 C 232.765 24.09 232.119 22.414 230.825 21.205 C 229.532 20.002 227.808 19.418 225.659 19.465 C 223.379 19.507 221.209 20.253 219.159 21.699 L 219.159 45.832 L 214.356 45.832 L 214.356 21.106 C 217.12 19.093 219.664 17.779 221.986 17.164 C 224.186 16.591 226.111 16.307 227.786 16.307 C 228.926 16.307 229.999 16.407 231.008 16.637 C 232.895 17.073 234.428 17.883 235.612 19.07 C 236.932 20.384 237.588 21.97 237.588 23.805 L 237.588 45.83 L 237.568 45.832 Z " fill="rgb(0,0,0)" vector-effect="non-scaling-stroke" stroke-width="1" stroke="rgb(0,0,0)" stroke-linejoin="miter" stroke-linecap="butt" stroke-miterlimit="4"/><path d=" M 29.61 1.69 C 27.14 1.7 24.778 1.912 22.702 2.29 C 16.584 3.37 15.474 5.633 15.474 9.805 L 15.474 15.305 L 29.93 15.305 L 29.93 17.142 L 10.05 17.142 C 5.85 17.142 2.17 19.667 1.02 24.472 C -0.307 29.979 -0.366 33.415 1.02 39.164 C 2.048 43.444 4.502 46.494 8.703 46.494 L 13.673 46.494 L 13.673 39.889 C 13.673 35.117 17.803 30.909 22.703 30.909 L 37.143 30.909 C 41.163 30.909 44.371 27.609 44.371 23.563 L 44.371 9.795 C 44.371 5.877 41.066 2.935 37.143 2.28 C 34.653 1.873 32.134 1.676 29.611 1.69 L 29.61 1.69 Z  M 21.792 6.12 C 23.285 6.12 24.505 7.36 24.505 8.883 C 24.505 10.401 23.285 11.629 21.792 11.629 C 20.292 11.629 19.079 10.401 19.079 8.883 C 19.079 7.359 20.293 6.12 21.792 6.12 Z " fill="rgb(0,0,0)" vector-effect="non-scaling-stroke" stroke-width="1" stroke="rgb(0,0,0)" stroke-linejoin="miter" stroke-linecap="butt" stroke-miterlimit="4"/><linearGradient id="_lgradient_2" x1="0.4999745951832267" y1="0.8227365442811285" x2="0.23709300064712802" y2="0.44722639395589325" gradientTransform="matrix(44.46,0,0,45.147,15.476,17.142)" gradientUnits="userSpaceOnUse"><stop offset="0%" stop-opacity="1" style="stop-color:rgb(255,212,59)"/><stop offset="97.82608695652173%" stop-opacity="1" style="stop-color:rgb(251,211,11)"/></linearGradient><path d=" M 46.174 17.142 L 46.174 23.562 C 46.174 28.539 41.954 32.728 37.144 32.728 L 22.704 32.728 C 18.749 32.728 15.476 36.113 15.476 40.074 L 15.476 53.84 C 15.476 57.758 18.883 60.062 22.704 61.186 C 27.28 62.532 31.668 62.776 37.144 61.186 C 40.784 60.132 44.372 58.012 44.372 53.84 L 44.372 48.34 L 29.93 48.34 L 29.93 46.503 L 51.6 46.503 C 55.8 46.503 57.367 43.573 58.828 39.173 C 60.338 34.645 60.273 30.29 58.828 24.481 C 57.79 20.298 55.808 17.151 51.6 17.151 L 46.175 17.151 L 46.174 17.142 Z  M 38.054 52.002 C 39.554 52.002 40.767 53.23 40.767 54.748 C 40.767 56.272 39.553 57.511 38.054 57.511 C 36.561 57.511 35.341 56.271 35.341 54.748 C 35.341 53.23 36.561 52.002 38.054 52.002 Z " fill="url(#_lgradient_2)" vector-effect="non-scaling-stroke" stroke-width="1" stroke="rgb(0,0,0)" stroke-linejoin="miter" stroke-linecap="butt" stroke-miterlimit="4"/><path d=" M 246.922 12.75 L 247.764 12.75 L 247.764 7.468 L 249.759 7.468 L 249.759 6.838 L 244.927 6.838 L 244.927 7.468 L 246.922 7.468 L 246.922 12.75 M 250.506 12.75 L 251.226 12.75 L 251.226 7.926 L 252.788 12.749 L 253.588 12.749 L 255.215 7.942 L 255.215 12.75 L 256 12.75 L 256 6.84 L 254.962 6.84 L 253.184 11.904 L 251.667 6.84 L 250.507 6.84 L 250.507 12.75" fill="rgb(0,0,0)"/><g opacity="0.444"><radialGradient id="_rgradient_1" fx="0.5000018052320239" fy="0.5000585978642675" cx="0.5000018052320239" cy="0.5000585978642675" r="1" gradientTransform="matrix(38.746,0,0,7.514,10.722,66.786)" gradientUnits="userSpaceOnUse"><stop offset="0%" stop-opacity="0.498" style="stop-color:rgb(184,184,184)"/><stop offset="100%" stop-opacity="0" style="stop-color:rgb(127,127,127)"/></radialGradient><ellipse vector-effect="non-scaling-stroke" cx="30.095000000000002" cy="70.543" rx="19.373000000000005" ry="3.757000000000005" fill="url(#_rgradient_1)"/></g></g></svg>