<?xml version="1.0" encoding="UTF-8" standalone="no"?><!-- Generator: Gravit.io --><svg xmlns="http://www.w3.org/2000/svg" xmlns:xlink="http://www.w3.org/1999/xlink" style="isolation:isolate" viewBox="0 0 120 60" width="120pt" height="60pt"><defs><clipPath id="_clipPath_RlmzSvvxdbI9R6f8M35oCGp2i4wcR73b"><rect width="120" height="60"/></clipPath></defs><g clip-path="url(#_clipPath_RlmzSvvxdbI9R6f8M35oCGp2i4wcR73b)"><g><path d=" M 32.36 22.746 L 29.805 25.301 C 34.063 29.559 34.063 36.494 29.805 40.752 C 25.547 45.01 18.613 45.01 14.354 40.752 C 10.096 36.494 10.096 29.559 14.354 25.301 L 21.167 18.488 L 22.019 17.515 L 22.019 12.405 L 11.678 22.746 C 8.933 25.463 7.389 29.164 7.389 33.026 C 7.389 36.888 8.933 40.59 11.678 43.307 C 14.395 46.051 18.096 47.595 21.958 47.595 C 25.82 47.595 29.522 46.051 32.239 43.307 C 38.078 37.589 38.078 28.342 32.36 22.746 Z " fill="rgb(255,240,28)"/><circle vector-effect="non-scaling-stroke" cx="27.2504476" cy="20.0694891" r="1.946561599999999" fill="rgb(4,4,4)"/></g><path d=" M 48.008 32.028 L 46.008 32.028 L 46.008 37.172 L 44.515 37.172 L 44.515 22.57 L 48.165 22.57 C 52.037 22.57 53.862 24.45 53.862 27.17 C 53.862 30.378 51.594 31.982 47.999 32.037 L 48.008 32.028 Z  M 48.108 23.953 L 45.96 23.953 L 45.96 30.646 L 48.062 30.591 C 50.828 30.536 52.322 29.429 52.322 27.161 C 52.322 25.115 50.884 23.953 48.118 23.953 L 48.108 23.953 Z  M 60.62 37.116 L 59.735 39.439 C 58.739 42.039 57.735 42.813 56.25 42.813 C 55.42 42.813 54.812 42.593 54.148 42.315 L 54.59 40.988 C 55.088 41.265 55.64 41.43 56.25 41.43 C 57.08 41.43 57.688 40.988 58.462 38.93 L 59.182 37.05 L 55.034 26.486 L 56.584 26.486 L 59.958 35.336 L 63.278 26.486 L 64.771 26.486 L 60.62 37.116 Z  M 69.745 24.008 L 69.745 37.228 L 68.252 37.228 L 68.252 24.008 L 63.108 24.008 L 63.108 22.57 L 74.888 22.57 L 74.888 23.953 L 69.744 23.953 L 69.745 24.008 Z  M 79.092 37.503 C 76.105 37.503 73.892 35.291 73.892 31.861 C 73.892 28.431 76.16 26.164 79.192 26.164 C 82.179 26.164 84.336 28.376 84.336 31.806 C 84.336 35.236 82.068 37.503 79.081 37.503 L 79.092 37.503 Z  M 79.147 27.503 C 76.879 27.503 75.387 29.328 75.387 31.817 C 75.387 34.417 76.937 36.187 79.203 36.187 C 81.469 36.187 82.963 34.362 82.963 31.873 C 82.963 29.273 81.413 27.503 79.147 27.503 Z  M 88.053 37.227 L 86.615 37.227 L 86.615 26.497 L 88.053 26.22 L 88.053 28.488 C 88.773 27.105 89.823 26.22 91.206 26.22 C 91.865 26.225 92.511 26.397 93.086 26.718 L 92.7 28.1 C 92.258 27.823 91.65 27.658 91.04 27.658 C 89.934 27.658 88.883 28.488 87.998 30.424 L 87.998 37.227 L 88.053 37.227 Z  M 98.783 37.503 C 95.575 37.503 93.528 35.18 93.528 31.861 C 93.528 28.487 95.74 26.164 98.783 26.164 C 100.11 26.164 101.217 26.496 102.157 27.104 L 101.77 28.431 C 100.94 27.878 99.945 27.546 98.783 27.546 C 96.46 27.546 95.023 29.261 95.023 31.806 C 95.023 34.406 96.573 36.12 98.839 36.12 C 99.899 36.115 100.935 35.808 101.826 35.235 L 102.103 36.562 C 101.163 37.17 100.001 37.502 98.783 37.502 L 98.783 37.503 Z  M 111.117 37.227 L 111.117 30.313 C 111.117 28.433 110.343 27.613 108.849 27.613 C 107.632 27.613 106.415 28.221 105.529 29.163 L 105.529 37.293 L 104.091 37.293 L 104.091 21.473 L 105.529 21.196 L 105.529 27.944 C 106.635 26.838 108.073 26.229 109.235 26.229 C 111.337 26.229 112.609 27.556 112.609 29.879 L 112.609 37.235 L 111.117 37.227 Z " fill="rgb(21,21,21)"/></g></svg>