<?xml version="1.0" encoding="UTF-8" standalone="no"?><!-- Generator: Gravit.io --><svg xmlns="http://www.w3.org/2000/svg" xmlns:xlink="http://www.w3.org/1999/xlink" style="isolation:isolate" viewBox="0 0 153 120" width="153pt" height="120pt"><defs><clipPath id="_clipPath_rYalFXdXMguxWVbx6wHQA06nGsAUgHqi"><rect width="153" height="120"/></clipPath></defs><g clip-path="url(#_clipPath_rYalFXdXMguxWVbx6wHQA06nGsAUgHqi)"><clipPath id="_clipPath_OgLJDjudhkmIWnWBLPnUAHms0BdNUzNm"><rect x="0" y="0" width="153" height="120" transform="matrix(1,0,0,1,0,0)" fill="rgb(255,255,255)"/></clipPath><g clip-path="url(#_clipPath_OgLJDjudhkmIWnWBLPnUAHms0BdNUzNm)"><g><path d=" M 76.5 81.972 C 57.757 81.972 42.562 70.379 42.562 56.08 C 42.562 41.78 57.757 30.188 76.5 30.188 C 95.243 30.188 110.438 41.78 110.438 56.08 C 110.438 70.379 95.244 81.972 76.5 81.972 Z  M 81.695 40.31 C 67.449 40.31 55.9 48.236 55.9 58.011 C 55.9 67.786 67.449 75.711 81.695 75.711 C 95.941 75.711 106.455 70.293 106.455 58.011 C 106.455 45.732 95.941 40.31 81.695 40.31 Z " fill-rule="evenodd" fill="rgb(255,212,59)"/><path d=" M 94.248 70.291 C 94.248 70.291 96.302 70.997 97.495 71.684 C 97.909 71.926 98.626 72.399 99.142 73.025 C 99.649 73.637 99.895 74.258 99.895 74.258 L 107.99 89.806 L 94.906 89.813 L 88.788 76.724 C 88.788 76.724 87.535 74.271 86.764 73.561 C 86.121 72.968 85.847 72.756 85.211 72.756 L 82.102 72.756 L 82.105 89.803 L 70.527 89.809 L 70.527 46.265 L 93.777 46.265 C 93.777 46.265 104.367 46.482 104.367 57.96 C 104.367 57.96 94.248 70.291 94.248 70.291 L 94.248 70.291 Z  M 89.212 55.71 L 82.203 55.705 L 82.199 63.109 L 89.212 63.109 C 89.212 63.109 92.46 63.098 92.46 59.342 C 92.46 55.512 89.212 55.713 89.212 55.713 L 89.212 55.71 Z " fill-rule="evenodd" fill="rgb(0,0,0)"/></g></g></g></svg>