<?xml version="1.0" encoding="UTF-8" standalone="no"?>
<!-- Generator: Gravit.io -->
<svg xmlns="http://www.w3.org/2000/svg" xmlns:xlink="http://www.w3.org/1999/xlink" style="isolation:isolate" viewBox="0 0 1405 822" width="1405pt" height="822pt"><defs><clipPath id="_clipPath_FZCn6ZTkbICBTFXIfZnyCIPugDNZDmoV"><rect width="1405" height="822"/></clipPath></defs><g clip-path="url(#_clipPath_FZCn6ZTkbICBTFXIfZnyCIPugDNZDmoV)"><rect width="1405" height="822" style="fill:rgb(23,43,77)" fill-opacity="0"/><path d=" M -18 -42 L -6 757.106 Q 168 793.311 343.57 715.728 C 519.14 638.145 628 726.073 738 764.864 C 848 803.656 992 676.937 1132 679.523 C 1272 682.109 1296.658 811.131 1400 793.311 Q 1503.342 775.492 1400 -33.716 L -18 -42 Z " fill="rgb(255,240,28)"/><g opacity="0.02"><ellipse vector-effect="non-scaling-stroke" cx="205" cy="200" rx="43" ry="42" fill="rgb(0,0,0)"/></g><g opacity="0.02"><ellipse vector-effect="non-scaling-stroke" cx="45.00000000000002" cy="442" rx="14.99999999999998" ry="14" fill="rgb(235,235,235)"/></g><g opacity="0.02"><ellipse vector-effect="non-scaling-stroke" cx="402" cy="295.6530115423982" rx="15" ry="14" fill="rgb(0,0,0)"/></g><g opacity="0.02"><ellipse vector-effect="non-scaling-stroke" cx="788" cy="484" rx="15" ry="14" fill="rgb(0,0,0)"/></g><g opacity="0.02"><ellipse vector-effect="non-scaling-stroke" cx="731.835454089127" cy="85" rx="15" ry="14" fill="rgb(0,0,0)"/></g><g opacity="0.02"><ellipse vector-effect="non-scaling-stroke" cx="464.9999999999999" cy="-1.4210854715202004e-14" rx="15" ry="13.999999999999996" fill="rgb(0,0,0)"/></g><g opacity="0.01"><ellipse vector-effect="non-scaling-stroke" cx="1135" cy="281.6530115423982" rx="94" ry="92.00000000000001" fill="rgb(0,0,0)"/></g></g></svg>