<?xml version="1.0" encoding="UTF-8" standalone="no"?><!-- Generator: Gravit.io --><svg xmlns="http://www.w3.org/2000/svg" xmlns:xlink="http://www.w3.org/1999/xlink" style="isolation:isolate" viewBox="0 0 370 400" width="370pt" height="400pt"><defs><clipPath id="_clipPath_naxdpIxG0aGYGwiR5payUdx7UK4DR0nv"><rect width="370" height="400"/></clipPath></defs><g clip-path="url(#_clipPath_naxdpIxG0aGYGwiR5payUdx7UK4DR0nv)"><rect width="370" height="400" style="fill:rgb(0,0,0)" fill-opacity="0"/><path d="M 13 6 L 354 6 C 359.519 6 364 10.481 364 16 L 364 383 C 364 388.519 359.519 393 354 393 L 13 393 C 7.481 393 3 388.519 3 383 L 3 16 C 3 10.481 7.481 6 13 6 Z" style="stroke:none;fill:#000000;stroke-miterlimit:10;"/><ellipse vector-effect="non-scaling-stroke" cx="25.5" cy="28" rx="6.5" ry="7" fill="rgb(253,77,77)"/><ellipse vector-effect="non-scaling-stroke" cx="50.5" cy="28" rx="6.5" ry="7" fill="rgb(255,255,255)"/><ellipse vector-effect="non-scaling-stroke" cx="75.5" cy="28" rx="6.5" ry="7" fill="rgb(240,240,101)"/><g><g><g opacity="0.13"><path d=" M 302.713 204.732 C 297.049 202.364 291.426 200.605 286.283 199.517 C 271.137 196.309 266.175 200.939 261.708 211.466 L 255.809 225.37 L 288.87 239.397 L 286.903 244.031 L 253.843 230.004 L 241.436 224.739 C 231.828 220.663 220.711 223.465 212.937 234.471 C 204.006 247.078 200.19 255.694 197.206 271.547 C 194.974 283.343 197.319 293.419 206.928 297.497 L 218.295 302.319 L 225.367 285.651 C 230.476 273.612 244.423 266.995 255.634 271.752 L 288.655 285.763 C 297.848 289.663 308.728 284.426 313.051 274.24 L 327.789 239.505 C 331.983 229.621 327.576 218.985 319.305 213.528 C 314.069 210.075 308.377 207.101 302.713 204.732 Z  M 280.09 208.328 C 283.505 209.777 284.967 214.088 283.335 217.932 C 281.71 221.764 277.605 223.68 274.191 222.231 C 270.763 220.777 269.303 216.5 270.929 212.668 C 272.56 208.823 276.662 206.874 280.09 208.328 Z " fill="rgb(81,81,81)"/></g><g opacity="0.13"><path d=" M 324.045 259.791 L 317.172 275.989 C 311.843 288.549 297.71 295.023 286.707 290.355 L 253.686 276.344 C 244.641 272.506 233.531 277.873 229.29 287.868 L 214.551 322.605 C 210.357 332.49 215.68 341.612 223.216 348.155 C 232.24 355.991 242.013 360.863 256.237 362.166 C 265.687 363.039 276.166 361.169 280.632 350.644 L 286.531 336.74 L 253.51 322.728 L 255.476 318.096 L 288.496 332.106 L 305.025 339.119 C 314.634 343.197 321.353 337.322 329.403 327.639 C 337.703 317.675 342.22 306.623 345.134 290.564 C 347.237 279.002 346.073 269.137 336.451 265.055 L 324.045 259.791 Z  M 268.149 339.878 C 271.576 341.332 273.039 345.607 271.413 349.439 C 269.781 353.285 265.677 355.235 262.25 353.781 C 258.835 352.332 257.374 348.02 259.006 344.174 C 260.632 340.342 264.735 338.429 268.149 339.878 Z " fill="rgb(81,81,81)"/></g></g></g></g></svg>