<?xml version="1.0" encoding="UTF-8" standalone="no"?><!-- Generator: Gravit.io --><svg xmlns="http://www.w3.org/2000/svg" xmlns:xlink="http://www.w3.org/1999/xlink" style="isolation:isolate" viewBox="0 0 404 280" width="404pt" height="280pt"><defs><clipPath id="_clipPath_w5vxriHBJ5LcGg3z4AarBNwKupe9v4QU"><rect width="404" height="280"/></clipPath></defs><g clip-path="url(#_clipPath_w5vxriHBJ5LcGg3z4AarBNwKupe9v4QU)"><g opacity="0.66"><path d=" M 0 211 Q 61.833 165.293 102.507 165 C 143.182 164.707 166.719 205.49 207.025 211 Q 247.331 216.51 404 126 L 404 299 L 0 298 L 0 211 Z " fill="rgb(240,240,240)"/></g><g><path d=" M 106.783 37.5 L 89.801 70.138 L 93.229 70.138 L 93.229 96.752 L 75.953 96.752 L 66 115.881 L 189.326 178.184 L 230.109 99.803 L 106.783 37.5 L 106.783 37.5 Z " fill="rgb(242,242,242)"/><rect x="103.198" y="58.731" width="189.074" height="93.469" transform="matrix(1,0,0,1,0,0)" fill="rgb(63,61,86)"/><g opacity="0.3"><rect x="129.726" y="92.317" width="139.554" height="0.317" transform="matrix(1,0,0,1,0,0)" fill="rgb(0,0,0)"/></g><g opacity="0.3"><rect x="129.887" y="100.238" width="139.554" height="0.317" transform="matrix(1,0,0,1,0,0)" fill="rgb(0,0,0)"/></g><g opacity="0.3"><rect x="129.887" y="116.08" width="139.554" height="0.317" transform="matrix(1,0,0,1,0,0)" fill="rgb(0,0,0)"/></g><g opacity="0.3"><rect x="129.887" y="123.05" width="139.554" height="0.317" transform="matrix(1,0,0,1,0,0)" fill="rgb(0,0,0)"/></g><g opacity="0.3"><rect x="129.887" y="108.159" width="139.554" height="0.317" transform="matrix(1,0,0,1,0,0)" fill="rgb(0,0,0)"/></g><ellipse vector-effect="non-scaling-stroke" cx="248.21851415433693" cy="237.11367291541913" rx="59.809006273856" ry="5.3863270845808415" fill="rgb(63,61,86)"/><path d=" M 133.758 123.28 L 133.315 122.821 L 154.087 103.312 L 172.399 116.291 L 187.206 100.114 L 193.7 105.552 L 211.362 95.11 L 230.982 108.103 L 261.774 90.845 L 262.092 91.396 L 230.953 108.848 L 211.343 95.86 L 193.635 106.329 L 187.266 100.995 L 172.491 117.136 L 154.145 104.134 L 133.758 123.28 L 133.758 123.28 Z " fill="rgb(0,0,0)"/><path d=" M 193.579 226.29 C 195.09 231.794 200.266 235.204 200.266 235.204 C 200.266 235.204 202.993 229.688 201.481 224.183 C 199.97 218.678 194.794 215.269 194.794 215.269 C 194.794 215.269 192.067 220.785 193.579 226.29 Z " fill="rgb(63,61,86)"/><path d=" M 195.799 225.107 C 199.946 229.084 200.453 235.199 200.453 235.199 C 200.453 235.199 194.236 234.865 190.089 230.887 C 185.942 226.909 185.435 220.794 185.435 220.794 C 185.435 220.794 191.652 221.129 195.799 225.107 Z " fill="rgb(0,0,0)"/><g opacity="0.4"><ellipse vector-effect="non-scaling-stroke" cx="312.04694289283395" cy="54.45381619419254" rx="10.772052205237514" ry="10.61423278432106" fill="rgb(0,0,0)"/></g><g opacity="0.4"><ellipse vector-effect="non-scaling-stroke" cx="292.1106074682152" cy="59.52330050909215" rx="7.556514233524808" ry="7.4458050875088055" fill="rgb(0,0,0)"/></g><g opacity="0.4"><ellipse vector-effect="non-scaling-stroke" cx="282.7855473502483" cy="196.08253424170047" rx="4.019422464640854" ry="3.960534621015313" fill="rgb(0,0,0)"/></g><g opacity="0.4"><ellipse vector-effect="non-scaling-stroke" cx="214.29458855276812" cy="216.67731427098008" rx="3.054761073127054" ry="3.0100063119716367" fill="rgb(0,0,0)"/></g><g opacity="0.4"><ellipse vector-effect="non-scaling-stroke" cx="204.0048670432875" cy="176.75512529114567" rx="4.019422464640854" ry="3.960534621015313" fill="rgb(0,0,0)"/></g><ellipse vector-effect="non-scaling-stroke" cx="261.5629967369446" cy="92.47494855593963" rx="4.180199363226507" ry="4.118956005855935" fill="rgb(0,0,0)"/><path d=" M 234.402 167.081 L 230.858 167.469 C 230.858 167.469 229.284 174.452 230.858 183.763 C 230.858 183.763 234.402 202.386 234.402 202.386 C 234.402 202.386 235.977 232.648 236.765 233.036 C 236.765 233.036 244.639 235.752 245.033 233.424 C 245.033 233.424 245.427 177.944 245.427 177.944 L 250.939 203.55 C 250.939 203.55 251.727 235.752 253.302 235.752 C 253.302 235.752 259.995 235.364 259.995 232.648 C 259.995 232.648 261.177 194.239 261.177 194.239 C 261.177 194.239 260.783 167.856 259.208 167.081 C 257.633 166.305 234.402 167.081 234.402 167.081 Z " fill="rgb(47,46,65)"/><path d=" M 237.552 231.872 C 237.552 231.872 234.008 231.484 233.221 231.872 C 233.221 231.872 231.252 234.976 233.221 236.528 C 233.221 236.528 240.308 240.408 241.883 240.408 C 242.975 240.36 244.047 240.096 245.033 239.632 L 244.246 233.036 L 237.552 231.872 Z " fill="rgb(47,46,65)"/><path d=" M 253.302 233.812 L 253.696 239.244 C 253.696 239.244 258.814 240.02 259.208 239.244 C 259.208 239.244 263.539 236.528 263.933 236.14 C 263.933 236.14 264.72 231.484 262.358 231.096 C 262.358 231.096 259.208 231.872 259.208 231.872 L 253.302 233.812 Z " fill="rgb(47,46,65)"/><path d=" M 220.227 134.491 C 220.227 134.491 210.778 143.414 211.959 148.07 C 213.14 152.726 222.59 166.305 222.59 166.305 C 222.59 166.305 231.646 170.96 232.827 166.305 C 234.008 161.649 226.527 162.813 226.527 162.813 L 220.621 148.846 L 227.315 139.534 L 220.227 134.491 Z " fill="rgb(255,184,184)"/><path d=" M 262.452 120.915 C 262.452 120.915 271.06 115.46 270.861 111.713 C 270.861 111.713 265.472 96.15 265.472 96.15 C 265.472 96.15 261.413 87.833 259.799 91.232 C 259.799 91.232 261.92 98.249 261.92 98.249 L 264.331 109.839 L 257.779 115.998 L 262.452 120.915 Z " fill="rgb(255,184,184)"/><ellipse vector-effect="non-scaling-stroke" cx="241.09579528642416" cy="106.16860156621408" rx="7.087373674527868" ry="6.983537823399288" fill="rgb(255,184,184)"/><path d=" M 237.552 110.436 L 238.733 117.808 L 247.396 116.256 C 247.396 116.256 247.002 108.884 247.002 108.108 C 247.002 107.333 237.552 110.436 237.552 110.436 Z " fill="rgb(255,184,184)"/><path d=" M 237.158 117.808 C 237.158 117.808 247.002 115.48 248.183 116.256 C 248.183 116.256 255.271 117.808 255.271 117.808 L 261.964 127.895 L 259.995 140.698 C 259.995 140.698 259.602 161.261 260.389 164.753 C 260.389 164.753 265.508 168.632 256.452 169.408 C 256.452 169.408 245.821 169.02 239.521 170.572 C 239.521 170.572 228.102 169.796 229.677 168.244 C 229.677 168.244 234.008 141.862 230.858 139.534 C 230.858 139.534 226.527 125.179 226.527 125.179 C 226.527 125.179 237.158 119.748 237.158 117.808 Z " fill="rgb(255,240,28)"/><path d=" M 254.089 118.972 L 255.271 117.808 L 257.633 115.48 C 257.633 115.48 265.311 118.778 264.917 119.942 C 264.917 119.942 261.964 127.895 261.964 127.895 L 258.42 129.059 L 254.089 118.972 Z " fill="rgb(0,0,0)"/><path d=" M 231.252 125.955 L 226.527 125.179 C 226.527 125.179 222.984 129.059 221.802 130.611 C 221.802 130.611 218.259 136.043 218.259 136.043 L 226.527 141.862 L 232.827 135.267 L 231.252 125.955 Z " fill="rgb(0,0,0)"/><path d=" M 243.569 97.708 L 243.497 97.149 C 243.015 97.146 242.536 97.22 242.078 97.368 C 242.031 97.031 242.061 96.687 242.166 96.363 C 241.701 96.481 241.257 96.671 240.853 96.925 L 240.566 95.904 L 236.63 97.816 C 235.217 98.502 233.728 99.256 232.92 100.588 C 232.02 102.074 232.176 103.983 232.792 105.604 C 233.407 107.225 234.43 108.659 235.25 110.189 C 235.561 110.847 235.935 111.474 236.367 112.063 C 237.853 113.888 240.745 114.256 242.84 113.155 C 243.637 112.776 244.272 112.132 244.633 111.336 C 244.786 110.842 244.906 110.339 244.992 109.83 C 245.251 108.787 245.552 106.634 246.411 105.975 C 246.79 105.684 247.54 106.647 247.853 106.289 C 248.659 105.37 248.49 103.954 247.989 102.844 C 247.509 101.73 246.948 100.651 246.31 99.616 C 246.039 99.2 243.56 97.641 243.569 97.708 Z " fill="rgb(47,46,65)"/><rect x="70.078" y="73.94" width="20.579" height="20.278" transform="matrix(1,0,0,1,0,0)" fill="rgb(63,61,86)"/></g></g></svg>